<svg width="64" height="64" viewBox="0 0 64 64" fill="none" xmlns="http://www.w3.org/2000/svg">
<rect width="64" height="64" rx="32" fill="#F4EFFD"/>
<path d="M27.2 25.0526V22.5263C27.2 21.8316 27.4352 21.2366 27.9056 20.7415C28.3752 20.2472 28.94 20 29.6 20H34.4C35.06 20 35.6252 20.2472 36.0956 20.7415C36.5652 21.2366 36.8 21.8316 36.8 22.5263V25.0526H41.6C42.26 25.0526 42.8252 25.3002 43.2956 25.7954C43.7652 26.2897 44 26.8842 44 27.5789V33.8947H35.6V31.3684H28.4V33.8947H20V27.5789C20 26.8842 20.2352 26.2897 20.7056 25.7954C21.1752 25.3002 21.74 25.0526 22.4 25.0526H27.2ZM29.6 25.0526H34.4V22.5263H29.6V25.0526ZM30.8 36.4211V33.8947H33.2V36.4211H30.8ZM20 36.4211H28.4V38.9474H35.6V36.4211H44V41.4737C44 42.1684 43.7652 42.7634 43.2956 43.2585C42.8252 43.7528 42.26 44 41.6 44H22.4C21.74 44 21.1752 43.7528 20.7056 43.2585C20.2352 42.7634 20 42.1684 20 41.4737V36.4211Z" fill="#0C2191"/>
</svg>
