<svg width="64" height="64" viewBox="0 0 64 64" fill="none" xmlns="http://www.w3.org/2000/svg">
<rect width="64" height="64" rx="32" fill="#FFF5EE"/>
<path d="M37.6801 21L36.7934 21.0135L36.8141 23.7343C34.5592 24.6616 31.4675 25.112 28.6132 25.3797C30.3422 32.1004 33.5078 37.5089 36.389 43.3275C37.4096 41.9555 38.9068 41.095 40.5004 40.814C39.4757 39.5499 38.6957 38.8619 37.6022 35.8974C39.1426 38.4859 40.1923 39.2804 41.426 40.2254C41.5868 39.3114 41.8663 38.5057 42.3482 37.9447C42.7752 37.4478 43.3348 37.2011 44 37.2227C41.6909 33.0512 38.9915 29.0523 37.7028 24.0001L37.6801 21ZM27.9309 21.8149L27.0443 21.832C27.0443 21.832 27.0566 23.1121 27.0719 24.4125C27.0796 25.0627 27.0879 25.7179 27.096 26.2223C27.0989 26.4063 27.1017 26.542 27.1045 26.679C25.411 32.5236 23.6979 37.9163 21 42.9733C22.6569 42.8765 24.2673 42.8893 25.8549 42.9704C26.9516 38.5998 27.0049 33.5575 27.6099 28.8703C28.1723 33.656 28.1304 38.6037 29.2594 43.2374C31.3757 43.4525 33.4806 43.7398 35.6314 44C32.889 38.4752 29.808 33.1784 27.99 26.5942C27.9875 26.4698 27.985 26.3572 27.9825 26.1938C27.9745 25.6943 27.9661 25.0405 27.9584 24.3915C27.9432 23.0937 27.9309 21.8149 27.9309 21.8149Z" fill="#0C2191"/>
</svg>
