<svg width="50" height="50" viewBox="0 0 50 50" fill="none" xmlns="http://www.w3.org/2000/svg">
<rect width="50" height="50" rx="25" fill="#FAEEFF"/>
<path d="M28.5003 14.5H25C24.8011 14.5 24.6103 14.579 24.4697 14.7197C24.329 14.8603 24.25 15.0511 24.25 15.25V18.2913C22.5998 18.4757 21.0756 19.262 19.9687 20.4997C18.8618 21.7373 18.2499 23.3396 18.25 25H16.75C16.1533 25 15.581 25.2371 15.159 25.659C14.7371 26.081 14.5 26.6533 14.5 27.25V34C14.5 34.1989 14.579 34.3897 14.7197 34.5303C14.8603 34.671 15.0511 34.75 15.25 34.75H22.75V31.75C22.75 31.5511 22.829 31.3603 22.9697 31.2197C23.1103 31.079 23.3011 31 23.5 31H26.5C26.6989 31 26.8897 31.079 27.0303 31.2197C27.171 31.3603 27.25 31.5511 27.25 31.75V34.75H34.75C34.9489 34.75 35.1397 34.671 35.2803 34.5303C35.421 34.3897 35.5 34.1989 35.5 34V27.25C35.5 26.6533 35.2629 26.081 34.841 25.659C34.419 25.2371 33.8467 25 33.25 25H31.75C31.7501 23.3396 31.1382 21.7373 30.0313 20.4997C28.9244 19.262 27.4002 18.4757 25.75 18.2913V17.5H28.5003C28.6329 17.5 28.7602 17.4473 28.854 17.3535C28.9478 17.2597 29.0005 17.1324 29.0005 16.9998V15.0003C29.0005 14.8676 28.9478 14.7403 28.854 14.6465C28.7602 14.5527 28.6329 14.5 28.5003 14.5ZM22 22.75C22.1989 22.75 22.3897 22.829 22.5303 22.9697C22.671 23.1103 22.75 23.3011 22.75 23.5V25.75C22.75 25.9489 22.671 26.1397 22.5303 26.2803C22.3897 26.421 22.1989 26.5 22 26.5C21.8011 26.5 21.6103 26.421 21.4697 26.2803C21.329 26.1397 21.25 25.9489 21.25 25.75V23.5C21.25 23.3011 21.329 23.1103 21.4697 22.9697C21.6103 22.829 21.8011 22.75 22 22.75ZM28 22.75C28.1989 22.75 28.3897 22.829 28.5303 22.9697C28.671 23.1103 28.75 23.3011 28.75 23.5V25.75C28.75 25.9489 28.671 26.1397 28.5303 26.2803C28.3897 26.421 28.1989 26.5 28 26.5C27.8011 26.5 27.6103 26.421 27.4697 26.2803C27.329 26.1397 27.25 25.9489 27.25 25.75V23.5C27.25 23.3011 27.329 23.1103 27.4697 22.9697C27.6103 22.829 27.8011 22.75 28 22.75ZM25.75 23.5V25.75C25.75 25.9489 25.671 26.1397 25.5303 26.2803C25.3897 26.421 25.1989 26.5 25 26.5C24.8011 26.5 24.6103 26.421 24.4697 26.2803C24.329 26.1397 24.25 25.9489 24.25 25.75V23.5C24.25 23.3011 24.329 23.1103 24.4697 22.9697C24.6103 22.829 24.8011 22.75 25 22.75C25.1989 22.75 25.3897 22.829 25.5303 22.9697C25.671 23.1103 25.75 23.3011 25.75 23.5ZM19 28C19.1989 28 19.3897 28.079 19.5303 28.2197C19.671 28.3603 19.75 28.5511 19.75 28.75V31C19.75 31.1989 19.671 31.3897 19.5303 31.5303C19.3897 31.671 19.1989 31.75 19 31.75C18.8011 31.75 18.6103 31.671 18.4697 31.5303C18.329 31.3897 18.25 31.1989 18.25 31V28.75C18.25 28.5511 18.329 28.3603 18.4697 28.2197C18.6103 28.079 18.8011 28 19 28ZM31 28C31.1989 28 31.3897 28.079 31.5303 28.2197C31.671 28.3603 31.75 28.5511 31.75 28.75V31C31.75 31.1989 31.671 31.3897 31.5303 31.5303C31.3897 31.671 31.1989 31.75 31 31.75C30.8011 31.75 30.6103 31.671 30.4697 31.5303C30.329 31.3897 30.25 31.1989 30.25 31V28.75C30.25 28.5511 30.329 28.3603 30.4697 28.2197C30.6103 28.079 30.8011 28 31 28Z" fill="#0C2191"/>
</svg>
