<svg width="50" height="50" viewBox="0 0 50 50" fill="none" xmlns="http://www.w3.org/2000/svg">
<rect width="50" height="50" rx="25" fill="#FAEEFF"/>
<path fill-rule="evenodd" clip-rule="evenodd" d="M17.7996 32.8004V17.2004H17.4996C17.2609 17.2004 17.032 17.1056 16.8632 16.9368C16.6944 16.768 16.5996 16.5391 16.5996 16.3004C16.5996 16.0617 16.6944 15.8328 16.8632 15.664C17.032 15.4952 17.2609 15.4004 17.4996 15.4004H32.4996C32.7383 15.4004 32.9672 15.4952 33.136 15.664C33.3048 15.8328 33.3996 16.0617 33.3996 16.3004C33.3996 16.5391 33.3048 16.768 33.136 16.9368C32.9672 17.1056 32.7383 17.2004 32.4996 17.2004H32.1996V32.8004H32.4996C32.7383 32.8004 32.9672 32.8952 33.136 33.064C33.3048 33.2328 33.3996 33.4617 33.3996 33.7004C33.3996 33.9391 33.3048 34.168 33.136 34.3368C32.9672 34.5056 32.7383 34.6004 32.4996 34.6004H28.2996C28.0609 34.6004 27.832 34.5056 27.6632 34.3368C27.4944 34.168 27.3996 33.9391 27.3996 33.7004V30.7004C27.3996 30.4617 27.3048 30.2328 27.136 30.064C26.9672 29.8952 26.7383 29.8004 26.4996 29.8004H23.4996C23.2609 29.8004 23.032 29.8952 22.8632 30.064C22.6944 30.2328 22.5996 30.4617 22.5996 30.7004V33.7004C22.5996 33.9391 22.5048 34.168 22.336 34.3368C22.1672 34.5056 21.9383 34.6004 21.6996 34.6004H17.4996C17.2609 34.6004 17.032 34.5056 16.8632 34.3368C16.6944 34.168 16.5996 33.9391 16.5996 33.7004C16.5996 33.4617 16.6944 33.2328 16.8632 33.064C17.032 32.8952 17.2609 32.8004 17.4996 32.8004H17.7996ZM21.3996 19.6004C21.3996 19.4413 21.4628 19.2886 21.5753 19.1761C21.6879 19.0636 21.8405 19.0004 21.9996 19.0004H23.1996C23.3587 19.0004 23.5114 19.0636 23.6239 19.1761C23.7364 19.2886 23.7996 19.4413 23.7996 19.6004V20.8004C23.7996 20.9595 23.7364 21.1121 23.6239 21.2247C23.5114 21.3372 23.3587 21.4004 23.1996 21.4004H21.9996C21.8405 21.4004 21.6879 21.3372 21.5753 21.2247C21.4628 21.1121 21.3996 20.9595 21.3996 20.8004V19.6004ZM21.9996 23.8004C21.8405 23.8004 21.6879 23.8636 21.5753 23.9761C21.4628 24.0886 21.3996 24.2413 21.3996 24.4004V25.6004C21.3996 25.7595 21.4628 25.9121 21.5753 26.0247C21.6879 26.1372 21.8405 26.2004 21.9996 26.2004H23.1996C23.3587 26.2004 23.5114 26.1372 23.6239 26.0247C23.7364 25.9121 23.7996 25.7595 23.7996 25.6004V24.4004C23.7996 24.2413 23.7364 24.0886 23.6239 23.9761C23.5114 23.8636 23.3587 23.8004 23.1996 23.8004H21.9996ZM26.1996 19.6004C26.1996 19.4413 26.2628 19.2886 26.3753 19.1761C26.4879 19.0636 26.6405 19.0004 26.7996 19.0004H27.9996C28.1587 19.0004 28.3114 19.0636 28.4239 19.1761C28.5364 19.2886 28.5996 19.4413 28.5996 19.6004V20.8004C28.5996 20.9595 28.5364 21.1121 28.4239 21.2247C28.3114 21.3372 28.1587 21.4004 27.9996 21.4004H26.7996C26.6405 21.4004 26.4879 21.3372 26.3753 21.2247C26.2628 21.1121 26.1996 20.9595 26.1996 20.8004V19.6004ZM26.7996 23.8004C26.6405 23.8004 26.4879 23.8636 26.3753 23.9761C26.2628 24.0886 26.1996 24.2413 26.1996 24.4004V25.6004C26.1996 25.7595 26.2628 25.9121 26.3753 26.0247C26.4879 26.1372 26.6405 26.2004 26.7996 26.2004H27.9996C28.1587 26.2004 28.3114 26.1372 28.4239 26.0247C28.5364 25.9121 28.5996 25.7595 28.5996 25.6004V24.4004C28.5996 24.2413 28.5364 24.0886 28.4239 23.9761C28.3114 23.8636 28.1587 23.8004 27.9996 23.8004H26.7996Z" fill="#0C2191"/>
</svg>
