<svg width="62" height="96" viewBox="0 0 62 96" fill="none" xmlns="http://www.w3.org/2000/svg">
<path d="M9.33268 95.6654C6.94935 95.6654 4.90979 94.8175 3.21402 93.1217C1.51535 91.423 0.666016 89.382 0.666016 86.9987V8.9987C0.666016 6.61536 1.51535 4.57436 3.21402 2.8757C4.90979 1.17992 6.94935 0.332031 9.33268 0.332031H52.666C55.0494 0.332031 57.0904 1.17992 58.789 2.8757C60.4848 4.57436 61.3327 6.61536 61.3327 8.9987V86.9987C61.3327 89.382 60.4848 91.423 58.789 93.1217C57.0904 94.8175 55.0494 95.6654 52.666 95.6654H9.33268ZM30.9993 84.832C32.2271 84.832 33.257 84.416 34.089 83.584C34.9181 82.7549 35.3327 81.7265 35.3327 80.4987C35.3327 79.2709 34.9181 78.2425 34.089 77.4134C33.257 76.5814 32.2271 76.1654 30.9993 76.1654C29.7716 76.1654 28.7431 76.5814 27.914 77.4134C27.082 78.2425 26.666 79.2709 26.666 80.4987C26.666 81.7265 27.082 82.7549 27.914 83.584C28.7431 84.416 29.7716 84.832 30.9993 84.832ZM9.33268 65.332H52.666V21.9987H9.33268V65.332Z" fill="#2F80ED"/>
</svg>
