<svg width="106" height="93" viewBox="0 0 106 93" fill="none" xmlns="http://www.w3.org/2000/svg">
<path fill-rule="evenodd" clip-rule="evenodd" d="M89.75 36.75C92.9397 36.7501 96.0542 37.7186 98.6814 39.5275C101.309 41.3364 103.325 43.9003 104.463 46.88C105.601 49.8597 105.808 53.1148 105.055 56.2145C104.303 59.3142 102.627 62.1125 100.25 64.239V90.2527C100.25 90.7004 100.135 91.1406 99.9174 91.5315C99.6993 91.9224 99.3849 92.2511 99.004 92.4863C98.6231 92.7214 98.1884 92.8553 97.7412 92.8751C97.294 92.8949 96.8492 92.8 96.449 92.5995L89.75 89.25L83.051 92.5995C82.6508 92.8 82.206 92.8949 81.7588 92.8751C81.3116 92.8553 80.8769 92.7214 80.496 92.4863C80.1151 92.2511 79.8007 91.9224 79.5826 91.5315C79.3645 91.1406 79.25 90.7004 79.25 90.2527V64.239C76.8726 62.1125 75.1969 59.3142 74.4447 56.2145C73.6924 53.1148 73.899 49.8597 75.0372 46.88C76.1754 43.9003 78.1914 41.3364 80.8186 39.5275C83.4458 37.7186 86.5603 36.7501 89.75 36.75ZM95 0C97.7848 0 100.455 1.10625 102.425 3.07538C104.394 5.04451 105.5 7.71523 105.5 10.5V31.5C100.445 27.7087 94.192 25.8681 87.8892 26.316C81.5863 26.764 75.6565 29.4704 71.1884 33.9384C66.7204 38.4065 64.014 44.3363 63.566 50.6392C63.1181 56.942 64.9587 63.195 68.75 68.25V84H11C8.21523 84 5.54451 82.8938 3.57538 80.9246C1.60625 78.9555 0.5 76.2848 0.5 73.5V10.5C0.5 7.71523 1.60625 5.04451 3.57538 3.07538C5.54451 1.10625 8.21523 0 11 0H95ZM32 47.25H21.5C20.1076 47.25 18.7723 47.8031 17.7877 48.7877C16.8031 49.7723 16.25 51.1076 16.25 52.5C16.25 53.8924 16.8031 55.2277 17.7877 56.2123C18.7723 57.1969 20.1076 57.75 21.5 57.75H32C33.3924 57.75 34.7277 57.1969 35.7123 56.2123C36.6969 55.2277 37.25 53.8924 37.25 52.5C37.25 51.1076 36.6969 49.7723 35.7123 48.7877C34.7277 47.8031 33.3924 47.25 32 47.25ZM53 26.25H21.5C20.1619 26.2515 18.8748 26.7639 17.9018 27.6825C16.9288 28.601 16.3433 29.8565 16.2648 31.1923C16.1864 32.5281 16.621 33.8435 17.4799 34.8696C18.3387 35.8957 19.557 36.5552 20.8857 36.7132L21.5 36.75H53C54.3381 36.7485 55.6252 36.2361 56.5982 35.3175C57.5712 34.399 58.1567 33.1435 58.2352 31.8077C58.3136 30.4719 57.879 29.1565 57.0201 28.1304C56.1613 27.1043 54.943 26.4448 53.6142 26.2868L53 26.25Z" fill="#2F80ED"/>
</svg>
