<svg width="85" height="91" viewBox="0 0 85 91" fill="none" xmlns="http://www.w3.org/2000/svg">
<path fill-rule="evenodd" clip-rule="evenodd" d="M42.5997 0.875C31.4013 0.875 21.1971 4.57392 15.1603 7.59602C14.6149 7.86873 14.1067 8.13648 13.6331 8.39431C12.696 8.90502 11.8977 9.38102 11.2631 9.8L18.1304 19.91L21.3632 21.1967C33.997 27.5707 50.9396 27.5707 63.576 21.1967L67.2451 19.2927L73.7405 9.8C72.3949 8.92236 70.9956 8.12995 69.5508 7.42744C63.5462 4.43756 53.5874 0.875 42.5997 0.875ZM26.6265 12.3188C24.1947 11.8638 21.7929 11.2611 19.4344 10.514C25.0894 8.0026 33.5185 5.3375 42.5972 5.3375C48.8869 5.3375 54.8344 6.61675 59.7531 8.23813C53.989 9.04881 47.8382 10.4248 41.9775 12.118C37.3662 13.4518 31.9765 13.308 26.6265 12.3188ZM66.194 24.8733L65.5866 25.1807C51.6859 32.1918 33.2508 32.1918 19.3501 25.1807L18.7749 24.8882C-2.10461 47.7982 -18.0456 90.1176 42.5997 90.1176C103.24 90.1176 86.9099 47.0073 66.194 24.8733ZM40.0214 45.5C38.7064 45.5 37.4452 46.0224 36.5153 46.9523C35.5855 47.8821 35.0631 49.1433 35.0631 50.4583C35.0631 51.7734 35.5855 53.0345 36.5153 53.9644C37.4452 54.8943 38.7064 55.4167 40.0214 55.4167V45.5ZM44.9797 40.5417V38.0625H40.0214V40.5417C37.3913 40.5417 34.869 41.5865 33.0093 43.4462C31.1495 45.3059 30.1047 47.8283 30.1047 50.4583C30.1047 53.0884 31.1495 55.6107 33.0093 57.4705C34.869 59.3302 37.3913 60.375 40.0214 60.375V70.2917C38.996 70.2919 37.9957 69.9743 37.1583 69.3824C36.3209 68.7906 35.6877 67.9537 35.3457 66.9869C35.1267 66.3669 34.6704 65.8592 34.0772 65.5756C33.4839 65.292 32.8023 65.2557 32.1823 65.4746C31.5622 65.6936 31.0546 66.1499 30.771 66.7431C30.4874 67.3364 30.451 68.018 30.67 68.6381C31.3538 70.5718 32.6203 72.2459 34.295 73.43C35.9697 74.6141 37.9703 75.25 40.0214 75.25V77.7292H44.9797V75.25C47.6098 75.25 50.1321 74.2052 51.9919 72.3455C53.8516 70.4857 54.8964 67.9634 54.8964 65.3333C54.8964 62.7033 53.8516 60.1809 51.9919 58.3212C50.1321 56.4615 47.6098 55.4167 44.9797 55.4167V45.5C47.1366 45.5 48.9737 46.8759 49.6579 48.8047C49.7594 49.1203 49.9232 49.4123 50.1395 49.6635C50.3559 49.9146 50.6204 50.1198 50.9174 50.267C51.2145 50.4141 51.538 50.5002 51.8689 50.5202C52.1998 50.5401 52.5313 50.4935 52.8439 50.383C53.1564 50.2726 53.4436 50.1006 53.6886 49.8772C53.9335 49.6539 54.1311 49.3836 54.2698 49.0825C54.4085 48.7815 54.4853 48.4556 54.4959 48.1243C54.5064 47.793 54.4504 47.4629 54.3311 47.1536C53.6473 45.2199 52.3808 43.5458 50.7061 42.3617C49.0314 41.1775 47.0308 40.5417 44.9797 40.5417ZM44.9797 60.375V70.2917C46.2948 70.2917 47.5559 69.7693 48.4858 68.8394C49.4157 67.9095 49.9381 66.6484 49.9381 65.3333C49.9381 64.0183 49.4157 62.7571 48.4858 61.8273C47.5559 60.8974 46.2948 60.375 44.9797 60.375Z" fill="#2F80ED"/>
</svg>
