<svg width="33" height="33" viewBox="0 0 33 33" fill="none" xmlns="http://www.w3.org/2000/svg">
<path fill-rule="evenodd" clip-rule="evenodd" d="M16.6476 3.71592C21.5171 3.71592 24.509 4.74897 26.3205 6.48805C26.8564 7.00246 27.3432 7.63128 27.7623 8.40368C28.0512 8.28184 28.2396 8.15626 28.3263 8.06489L29.9475 6.11304C27.4272 2.27455 22.9766 0.664062 16.6476 0.664062C10.1727 0.664062 5.66481 2.27719 3.12388 6.12244L4.73736 8.06488C4.82479 8.15711 5.01585 8.28419 5.3095 8.40711C5.73052 7.63825 6.22009 7.01222 6.75997 6.49954C8.59653 4.75556 11.6471 3.71592 16.6476 3.71592ZM4.24678 11.2694C3.57112 11.0016 2.92007 10.6172 2.44109 10.0755L2.42544 10.0578L1.67652 9.15626C1.00024 11.1924 0.662109 13.6368 0.662109 16.5337C0.662109 28.2635 5.29567 32.4034 16.4159 32.4034H32.4015V16.5337C32.4015 13.6353 32.063 11.1898 31.3897 9.15308L30.6381 10.0578L30.6225 10.0755C30.1438 10.6168 29.4934 11.001 28.8183 11.2688C29.1584 12.705 29.3496 14.4382 29.3496 16.5337V29.3516H16.4159C11.1106 29.3516 8.18758 28.339 6.50664 26.6891C4.83714 25.0506 3.71397 22.1125 3.71397 16.5337C3.71397 14.437 3.90529 12.7043 4.24678 11.2694Z" fill="black"/>
<path d="M17.0388 20.8733L18.1654 19.1834C18.4358 18.7777 18.145 18.2344 17.6576 18.2344H16.5309H15.4043C14.9169 18.2344 14.6261 18.7777 14.8965 19.1834L16.0231 20.8733C16.2647 21.2356 16.7972 21.2356 17.0388 20.8733Z" fill="black"/>
<path d="M13.4139 16.5371C13.4139 14.6588 12.145 13.7031 10.5799 13.7031C9.01486 13.7031 7.74609 14.6588 7.74609 16.5371" stroke="black" stroke-width="3.05186"/>
<path d="M25.3162 16.5371C25.3162 14.6588 24.0474 13.7031 22.4823 13.7031C20.9172 13.7031 19.6484 14.6588 19.6484 16.5371" stroke="black" stroke-width="3.05186"/>
<path d="M28.8102 18.3286L30.8748 17.5352V30.0676L28.5586 29.0502C23.8169 26.9676 23.9761 20.1865 28.8102 18.3286Z" stroke="black" stroke-width="3.05186"/>
</svg>
