<svg width="37" height="34" viewBox="0 0 37 34" fill="none" xmlns="http://www.w3.org/2000/svg">
<path d="M26.1673 22.0346L30.234 24.3846L28.984 26.5513L23.6673 23.4846V17.3346H26.1673V22.0346ZM37.0007 22.3346C37.0007 28.7846 31.784 34.0013 25.334 34.0013C18.884 34.0013 13.6673 28.7846 13.6673 22.3346C13.6673 21.768 13.7173 21.218 13.8007 20.668H0.333984V0.667969H30.334V11.8013C34.2673 13.6846 37.0007 17.6846 37.0007 22.3346ZM14.8007 17.3346C15.1007 16.7346 15.4173 16.168 15.8007 15.618C15.6507 15.668 15.5007 15.668 15.334 15.668C12.5673 15.668 10.334 13.4346 10.334 10.668C10.334 7.9013 12.5673 5.66797 15.334 5.66797C18.1007 5.66797 20.334 7.9013 20.334 10.668C20.334 11.0846 20.2673 11.5013 20.1673 11.8846C21.734 11.118 23.484 10.668 25.334 10.668C25.9007 10.668 26.4507 10.718 27.0007 10.8013V7.33464C26.1166 7.33464 25.2688 6.98345 24.6436 6.35832C24.0185 5.7332 23.6673 4.88536 23.6673 4.0013H7.00065C7.00065 5.8513 5.51732 7.33464 3.66732 7.33464V14.0013C4.55137 14.0013 5.39922 14.3525 6.02434 14.9776C6.64946 15.6027 7.00065 16.4506 7.00065 17.3346H14.8007ZM33.6673 22.3346C33.6673 17.7346 29.934 14.0013 25.334 14.0013C20.734 14.0013 17.0007 17.7346 17.0007 22.3346C17.0007 26.9346 20.734 30.668 25.334 30.668C29.934 30.668 33.6673 26.9346 33.6673 22.3346Z" fill="black"/>
</svg>
