<svg width="84" height="75" viewBox="0 0 84 75" fill="none" xmlns="http://www.w3.org/2000/svg">
<path d="M36.375 56.3125L51.3 47.7625C53.8125 46.3375 53.8125 42.7 51.3 41.2375L36.375 32.6875C33.8625 31.2625 30.75 33.1 30.75 35.95V53.0125C30.75 55.9 33.8625 57.7375 36.375 56.3125ZM75.75 14.5H47.2875L58.3125 3.475C59.0625 2.725 59.0625 1.5625 58.3125 0.8125C57.5625 0.0625 56.4 0.0625 55.65 0.8125L42 14.4625L28.35 0.8125C27.6 0.0625 26.4375 0.0625 25.6875 0.8125C24.9375 1.5625 24.9375 2.725 25.6875 3.475L36.7125 14.5H8.25C6.26088 14.5 4.35322 15.2902 2.9467 16.6967C1.54018 18.1032 0.75 20.0109 0.75 22V67C0.75 71.125 4.125 74.5 8.25 74.5H75.75C79.875 74.5 83.25 71.125 83.25 67V22C83.25 20.0109 82.4598 18.1032 81.0533 16.6967C79.6468 15.2902 77.7391 14.5 75.75 14.5ZM72 67H12C9.9375 67 8.25 65.3125 8.25 63.25V25.75C8.25 23.6875 9.9375 22 12 22H72C74.0625 22 75.75 23.6875 75.75 25.75V63.25C75.75 65.3125 74.0625 67 72 67Z" fill="#2F80ED"/>
</svg>
