<svg width="38" height="28" viewBox="0 0 38 28" fill="none" xmlns="http://www.w3.org/2000/svg">
<path d="M25.666 0.667969C26.108 0.667969 26.532 0.843564 26.8445 1.15612C27.1571 1.46869 27.3327 1.89261 27.3327 2.33464V9.33463L36.021 3.2513C36.1459 3.16373 36.2925 3.11213 36.4448 3.10214C36.597 3.09214 36.7491 3.12414 36.8844 3.19463C37.0197 3.26512 37.133 3.3714 37.2121 3.50189C37.2911 3.63238 37.3329 3.78207 37.3327 3.93464V24.068C37.3329 24.2205 37.2911 24.3702 37.2121 24.5007C37.133 24.6312 37.0197 24.7375 36.8844 24.808C36.7491 24.8785 36.597 24.9105 36.4448 24.9005C36.2925 24.8905 36.1459 24.8389 36.021 24.7513L27.3327 18.668V25.668C27.3327 26.11 27.1571 26.5339 26.8445 26.8465C26.532 27.159 26.108 27.3346 25.666 27.3346H2.33268C1.89065 27.3346 1.46673 27.159 1.15417 26.8465C0.84161 26.5339 0.666016 26.11 0.666016 25.668V2.33464C0.666016 1.89261 0.84161 1.46869 1.15417 1.15612C1.46673 0.843564 1.89065 0.667969 2.33268 0.667969H25.666ZM23.9993 4.0013H3.99935V24.0013H23.9993V4.0013ZM11.3327 8.7163C11.4595 8.71596 11.5838 8.7518 11.691 8.81963L18.9494 13.4396C19.0436 13.4999 19.1212 13.583 19.175 13.6811C19.2287 13.7793 19.2569 13.8894 19.2569 14.0013C19.2569 14.1132 19.2287 14.2233 19.175 14.3215C19.1212 14.4196 19.0436 14.5027 18.9494 14.563L11.691 19.1846C11.5899 19.2491 11.4733 19.2851 11.3535 19.2888C11.2337 19.2926 11.115 19.2639 11.0101 19.2059C10.9052 19.1479 10.8179 19.0627 10.7573 18.9592C10.6967 18.8557 10.6652 18.7379 10.666 18.618V9.38463C10.666 9.20782 10.7363 9.03825 10.8613 8.91323C10.9863 8.78821 11.1559 8.71797 11.3327 8.71797V8.7163ZM33.9994 8.73464L27.3327 13.4013V14.598L33.9994 19.2646V8.73464Z" fill="black"/>
</svg>
