<svg width="13" height="15" viewBox="0 0 13 15" fill="none" xmlns="http://www.w3.org/2000/svg">
<path d="M2.75001 11.25C2.75001 11.5938 3.03126 11.875 3.37501 11.875H4.00001V14.0625C4.00001 14.5813 4.41876 15 4.93751 15C5.45626 15 5.87501 14.5813 5.87501 14.0625V11.875H7.12501V14.0625C7.12501 14.5813 7.54376 15 8.06251 15C8.58126 15 9.00001 14.5813 9.00001 14.0625V11.875H9.62501C9.96876 11.875 10.25 11.5938 10.25 11.25V5H2.75001V11.25ZM1.18751 5C0.668758 5 0.250008 5.41875 0.250008 5.9375V10.3125C0.250008 10.8313 0.668758 11.25 1.18751 11.25C1.70626 11.25 2.12501 10.8313 2.12501 10.3125V5.9375C2.12501 5.41875 1.70626 5 1.18751 5ZM11.8125 5C11.2938 5 10.875 5.41875 10.875 5.9375V10.3125C10.875 10.8313 11.2938 11.25 11.8125 11.25C12.3313 11.25 12.75 10.8313 12.75 10.3125V5.9375C12.75 5.41875 12.3313 5 11.8125 5ZM8.70626 1.35L9.51876 0.5375C9.64376 0.4125 9.64376 0.21875 9.51876 0.09375C9.39376 -0.03125 9.20001 -0.03125 9.07501 0.09375L8.15001 1.01875C7.65626 0.76875 7.09376 0.625 6.50001 0.625C5.90001 0.625 5.33751 0.76875 4.83751 1.01875L3.90626 0.09375C3.78126 -0.03125 3.58751 -0.03125 3.46251 0.09375C3.33751 0.21875 3.33751 0.4125 3.46251 0.5375L4.28126 1.35625C3.35626 2.0375 2.75001 3.13125 2.75001 4.375H10.25C10.25 3.13125 9.64376 2.03125 8.70626 1.35ZM5.25001 3.125H4.62501V2.5H5.25001V3.125ZM8.37501 3.125H7.75001V2.5H8.37501V3.125Z" fill="black"/>
</svg>
