<svg width="72" height="72" viewBox="0 0 72 72" fill="none" xmlns="http://www.w3.org/2000/svg">
<path d="M38 60H8C6.93913 60 5.92172 59.5786 5.17157 58.8284C4.42143 58.0783 4 57.0609 4 56V16C4 14.9391 4.42143 13.9217 5.17157 13.1716C5.92172 12.4214 6.93913 12 8 12H64C65.0609 12 66.0783 12.4214 66.8284 13.1716C67.5786 13.9217 68 14.9391 68 16V36.74C65.3356 33.3465 61.4598 31.1174 57.1867 30.5209C52.9136 29.9244 48.5755 31.0069 45.0836 33.541C41.5917 36.0752 39.2176 39.8639 38.4599 44.1114C37.7022 48.3588 38.6198 52.7347 41.02 56.32L39.16 58.6L38 60ZM14 24V27.2H48V24H14ZM14 35.2H36V32H14V35.2ZM14 49.2H34V46H14V49.2Z" fill="#0C2191"/>
<path d="M67.66 47.18C67.6654 45.0712 67.1472 42.9941 66.1519 41.1349C65.1566 39.2758 63.7154 37.6927 61.9575 36.5278C60.1997 35.363 58.1801 34.6527 56.0801 34.4606C53.98 34.2686 51.8651 34.6009 49.9252 35.4277C47.9852 36.2545 46.2808 37.5499 44.9649 39.1978C43.6489 40.8456 42.7626 42.7943 42.3855 44.8691C42.0083 46.9439 42.1521 49.0799 42.8039 51.0855C43.4557 53.091 44.5951 54.9034 46.12 56.36L42.24 61.1L44.04 68.32L51.36 59.4C53.6771 60.0852 56.1429 60.0852 58.46 59.4L65.78 68.32L67.58 61.1L63.7 56.36C64.9478 55.1781 65.9422 53.7549 66.623 52.1768C67.3037 50.5987 67.6565 48.8987 67.66 47.18ZM46.18 47.18C46.1562 45.4465 46.6485 43.7451 47.5943 42.2921C48.5401 40.8391 49.8966 39.7002 51.4914 39.0203C53.0862 38.3403 54.8471 38.15 56.5504 38.4736C58.2536 38.7972 59.8221 39.62 61.0564 40.8374C62.2908 42.0548 63.1352 43.6117 63.4823 45.3103C63.8293 47.0089 63.6634 48.7724 63.0056 50.3764C62.3477 51.9804 61.2277 53.3526 59.7879 54.3183C58.3482 55.2841 56.6537 55.7999 54.92 55.8C52.623 55.8054 50.417 54.9021 48.7834 53.2873C47.1498 51.6724 46.2211 49.477 46.2 47.18H46.18Z" fill="#0C2191"/>
</svg>
