<svg width="19" height="19" viewBox="0 0 19 19" fill="none" xmlns="http://www.w3.org/2000/svg">
<path d="M5.85833 7.48923H6.02194C5.94592 6.83649 6.06045 6.17571 6.35171 5.58664C6.64297 4.99756 7.09851 4.50538 7.66333 4.1695C7.45859 3.85672 7.17612 3.60246 6.84359 3.43164C6.51106 3.26082 6.13987 3.17929 5.76636 3.19503C5.39285 3.21077 5.02983 3.32324 4.71285 3.52143C4.39587 3.71963 4.1358 3.99674 3.95809 4.32565C3.78039 4.65455 3.69116 5.02397 3.69912 5.39772C3.70709 5.77148 3.81198 6.13676 4.00354 6.45779C4.19509 6.77883 4.46674 7.04461 4.79187 7.22912C5.11701 7.41362 5.48449 7.51053 5.85833 7.51034V7.48923Z" fill="black"/>
<path d="M12.8936 7.0934C12.9 7.21471 12.9 7.33627 12.8936 7.45757C12.9949 7.47363 13.0972 7.48245 13.1997 7.48396H13.3C13.6722 7.46411 14.0329 7.34823 14.347 7.1476C14.6611 6.94696 14.9179 6.66841 15.0925 6.33906C15.267 6.00971 15.3532 5.64079 15.3428 5.26821C15.3324 4.89563 15.2257 4.53209 15.0331 4.21298C14.8405 3.89387 14.5686 3.63007 14.2438 3.44727C13.919 3.26446 13.5523 3.16887 13.1796 3.16981C12.8069 3.17074 12.4408 3.26818 12.1169 3.45262C11.793 3.63706 11.5224 3.90222 11.3314 4.22229C11.8091 4.53418 12.2018 4.95976 12.4745 5.46087C12.7472 5.96197 12.8912 6.52293 12.8936 7.0934Z" fill="black"/>
<path d="M6.33335 8.51837H5.87418C5.24758 8.49572 4.62301 8.60209 4.03923 8.83088C3.45545 9.05967 2.92492 9.406 2.48057 9.84837L2.3539 9.99615V14.3661H4.50723V11.8856L4.79751 11.5584L4.92946 11.4053C5.61658 10.6994 6.47203 10.18 7.41529 9.89587C6.94303 9.53652 6.57057 9.06232 6.33335 8.51837Z" fill="black"/>
<path d="M16.5406 9.8325C16.0962 9.39013 15.5657 9.0438 14.9819 8.81501C14.3981 8.58622 13.7735 8.47985 13.1469 8.5025C12.9548 8.50304 12.7627 8.51361 12.5717 8.53416C12.33 9.04447 11.9677 9.48827 11.5161 9.82722C12.5231 10.1058 13.4353 10.6531 14.155 11.4106L14.2869 11.5583L14.5719 11.8856V14.3714H16.6514V9.98027L16.5406 9.8325Z" fill="black"/>
<path d="M9.4314 9.45771C10.7343 9.45771 11.7906 8.40148 11.7906 7.09855C11.7906 5.79561 10.7343 4.73938 9.4314 4.73938C8.12847 4.73938 7.07224 5.79561 7.07224 7.09855C7.07224 8.40148 8.12847 9.45771 9.4314 9.45771Z" fill="black"/>
<path d="M9.55806 10.7138C8.8688 10.686 8.18104 10.7979 7.53616 11.0428C6.89128 11.2877 6.3026 11.6605 5.80556 12.1388L5.67361 12.2866V15.6274C5.67567 15.7363 5.69915 15.8436 5.7427 15.9434C5.78626 16.0431 5.84904 16.1333 5.92746 16.2088C6.00588 16.2842 6.0984 16.3435 6.19973 16.3833C6.30107 16.423 6.40924 16.4423 6.51806 16.4402H12.5822C12.691 16.4423 12.7992 16.423 12.9005 16.3833C13.0019 16.3435 13.0944 16.2842 13.1728 16.2088C13.2512 16.1333 13.314 16.0431 13.3576 15.9434C13.4011 15.8436 13.4246 15.7363 13.4267 15.6274V12.2972L13.3 12.1388C12.8062 11.659 12.2195 11.2852 11.5761 11.0401C10.9327 10.7951 10.2459 10.6841 9.55806 10.7138Z" fill="black"/>
</svg>
