<svg width="72" height="50" viewBox="0 0 72 50" fill="none" xmlns="http://www.w3.org/2000/svg">
<path d="M35.8108 0C29.6102 0 24.5836 5.94211 24.5836 13.2721C24.5836 18.3557 27.0014 22.7707 30.5517 25L26.4347 26.932L15.4787 32.0769C14.4203 32.6128 13.8921 33.5214 13.8921 34.8075V47.0248C13.9792 48.5522 14.8843 49.9759 16.3519 50H55.3291C57.0045 49.8525 57.8521 48.4861 57.8686 47.0248V34.8075C57.8686 33.5214 57.3403 32.6128 56.282 32.0769L45.7227 26.932L41.3344 24.8269C44.7391 22.5475 47.0381 18.2278 47.0381 13.2722C47.038 5.94211 42.0114 0 35.8108 0ZM17.7014 4.66718C15.033 4.76979 12.9182 5.93889 11.3116 7.80171C9.53436 10.0445 8.66796 12.7074 8.65122 15.3564C8.76036 19.2736 10.4914 22.9818 13.573 24.9215L1.26978 30.7105C0.423 31.032 0 31.7821 0 32.9609V42.7661C0.06612 44.0665 0.73296 45.1594 1.9833 45.1781H10.1603V34.8075C10.2956 32.0348 11.5816 29.7937 13.8921 28.7001L22.0669 24.7623C22.702 24.3872 23.3108 23.8773 23.8929 23.2343C20.5223 17.9686 20.0543 11.6617 22.2265 6.11446C20.8137 5.23897 19.2259 4.67635 17.7014 4.66718ZM54.2165 4.66718C52.4716 4.70418 50.8589 5.35483 49.5342 6.27369C51.6472 11.8712 51.0644 18.182 47.9453 23.0727C48.6333 23.8765 49.3495 24.4929 50.0905 24.9216L57.9484 28.7001C60.3422 30.0294 61.5766 32.2904 61.6003 34.8075V45.1783H70.0144C71.3982 45.0573 71.988 43.9397 72 42.7662V32.961C72 31.8893 71.577 31.1392 70.7302 30.7105L58.5844 24.8408C61.7342 22.4892 63.3159 18.9649 63.3465 15.3564C63.2627 12.5004 62.4011 9.84844 60.6862 7.80171C58.8942 5.83343 56.6716 4.68802 54.2165 4.66718Z" fill="#0C2191"/>
</svg>
