<svg width="54" height="61" viewBox="0 0 54 61" fill="none" xmlns="http://www.w3.org/2000/svg">
<path d="M7.2 0C5.29044 0 3.45909 0.75609 2.10883 2.10194C0.758569 3.44779 0 5.27315 0 7.17647V50.2353C0 52.1386 0.758569 53.964 2.10883 55.3098C3.45909 56.6557 5.29044 57.4118 7.2 57.4118H22.5252C21.6083 56.3049 20.8152 55.1017 20.16 53.8235H7.2C6.24522 53.8235 5.32955 53.4455 4.65442 52.7726C3.97929 52.0996 3.6 51.187 3.6 50.2353H18.7452C17.7824 46.855 17.7425 43.2798 18.6297 39.879C19.5169 36.4782 21.2989 33.3752 23.7918 30.8905C26.2846 28.4058 29.3978 26.6296 32.8097 25.7453C36.2217 24.861 39.8086 24.9007 43.2 25.8604V7.17647C43.2 5.27315 42.4414 3.44779 41.0912 2.10194C39.7409 0.75609 37.9096 0 36 0H7.2ZM9.9 8.97059H33.3C34.0161 8.97059 34.7028 9.25412 35.2092 9.75882C35.7155 10.2635 36 10.948 36 11.6618C36 12.3755 35.7155 13.06 35.2092 13.5647C34.7028 14.0694 34.0161 14.3529 33.3 14.3529H9.9C9.18392 14.3529 8.49716 14.0694 7.99081 13.5647C7.48446 13.06 7.2 12.3755 7.2 11.6618C7.2 10.948 7.48446 10.2635 7.99081 9.75882C8.49716 9.25412 9.18392 8.97059 9.9 8.97059ZM54 44.8529C54 49.1354 52.2932 53.2425 49.2551 56.2706C46.217 59.2988 42.0965 61 37.8 61C33.5035 61 29.383 59.2988 26.3449 56.2706C23.3068 53.2425 21.6 49.1354 21.6 44.8529C21.6 40.5705 23.3068 36.4634 26.3449 33.4352C29.383 30.4071 33.5035 28.7059 37.8 28.7059C42.0965 28.7059 46.217 30.4071 49.2551 33.4352C52.2932 36.4634 54 40.5705 54 44.8529ZM36.072 37.7985C35.8386 37.6387 35.5673 37.5424 35.2851 37.5191C35.0029 37.4958 34.7194 37.5464 34.4628 37.6657C34.2533 37.7576 34.0638 37.8892 33.9048 38.0532C33.5694 38.3958 33.382 38.8556 33.3828 39.3342V50.3681C33.3806 50.6059 33.4256 50.8418 33.5152 51.0623C33.6047 51.2827 33.7372 51.4834 33.9048 51.6526C34.0691 51.8155 34.2603 51.949 34.47 52.0474C34.8353 52.2142 35.2497 52.2397 35.6328 52.1191C35.7987 52.0646 35.9563 51.9873 36.1008 51.8895L44.3664 46.2667C44.6179 46.1016 44.8205 45.8724 44.9532 45.6029C45.09 45.3315 45.1603 45.0316 45.1584 44.7279C45.1565 44.4241 45.0825 44.1251 44.9424 43.8554C44.8016 43.5898 44.5946 43.3649 44.3412 43.2024L36.072 37.7985Z" fill="#0C2191"/>
</svg>
