<svg width="71" height="71" viewBox="0 0 71 71" fill="none" xmlns="http://www.w3.org/2000/svg">
<path d="M35.5 17.75L38.6728 20.8407L26.2922 33.2812H53.25V37.7188H26.2922L38.6728 50.0838L35.5 53.25L17.75 35.5L35.5 17.75Z" fill="#858585"/>
<path d="M35.5 66.5625C41.6436 66.5625 47.6492 64.7407 52.7574 61.3275C57.8656 57.9143 61.8469 53.063 64.198 47.3871C66.549 41.7112 67.1642 35.4656 65.9656 29.44C64.7671 23.4145 61.8087 17.8797 57.4645 13.5355C53.1203 9.19134 47.5855 6.23292 41.56 5.03437C35.5344 3.83582 29.2888 4.45096 23.6129 6.80201C17.937 9.15305 13.0857 13.1344 9.67246 18.2426C6.25927 23.3508 4.43749 29.3564 4.43749 35.5C4.44688 43.7354 7.72255 51.6308 13.5459 57.4541C19.3692 63.2775 27.2646 66.5531 35.5 66.5625ZM35.5 8.87501C40.7659 8.87501 45.9136 10.4365 50.292 13.3621C54.6705 16.2877 58.0831 20.446 60.0983 25.3111C62.1135 30.1762 62.6407 35.5295 61.6134 40.6943C60.5861 45.859 58.0503 50.6032 54.3267 54.3267C50.6031 58.0503 45.859 60.5861 40.6943 61.6134C35.5295 62.6408 30.1761 62.1135 25.311 60.0983C20.446 58.0831 16.2877 54.6705 13.3621 50.2921C10.4365 45.9136 8.87499 40.7659 8.87499 35.5C8.88321 28.4411 11.691 21.6737 16.6823 16.6824C21.6737 11.691 28.4411 8.88324 35.5 8.87501Z" fill="#858585"/>
</svg>
