<svg width="60" height="60" viewBox="0 0 60 60" fill="none" xmlns="http://www.w3.org/2000/svg">
<path d="M27.5 20H32.5V22.5H27.5V20ZM27.5 10H32.5V12.5H27.5V10ZM27.5 25H32.5V27.5H27.5V25Z" fill="#0C2191"/>
<path d="M52.5 30V22.5C44.8785 22.4984 37.4943 25.1502 31.615 30H28.385C22.5057 25.1502 15.1215 22.4984 7.5 22.5V30C6.83696 30 6.20107 30.2634 5.73223 30.7322C5.26339 31.2011 5 31.837 5 32.5V37.5C5 38.163 5.26339 38.7989 5.73223 39.2678C6.20107 39.7366 6.83696 40 7.5 40V50C15.8552 49.9924 23.8999 53.1656 30 58.875C36.1065 53.1757 44.1471 50.0041 52.5 50V40C53.163 40 53.7989 39.7366 54.2678 39.2678C54.7366 38.7989 55 38.163 55 37.5V32.5C55 31.837 54.7366 31.2011 54.2678 30.7322C53.7989 30.2634 53.163 30 52.5 30Z" fill="#0C2191"/>
<path d="M22.5 12.5C23.8807 12.5 25 11.3807 25 10C25 8.61929 23.8807 7.5 22.5 7.5C21.1193 7.5 20 8.61929 20 10C20 11.3807 21.1193 12.5 22.5 12.5Z" fill="#0C2191"/>
<path d="M37.5 12.5C38.8807 12.5 40 11.3807 40 10C40 8.61929 38.8807 7.5 37.5 7.5C36.1193 7.5 35 8.61929 35 10C35 11.3807 36.1193 12.5 37.5 12.5Z" fill="#0C2191"/>
<path d="M40 20H20C18.0115 19.998 16.105 19.2072 14.6989 17.8011C13.2928 16.395 12.502 14.4885 12.5 12.5V7.5C12.502 5.51149 13.2928 3.60498 14.6989 2.19889C16.105 0.792799 18.0115 0.00198554 20 0L40 0C41.9885 0.00198554 43.895 0.792799 45.3011 2.19889C46.7072 3.60498 47.498 5.51149 47.5 7.5V12.5C47.498 14.4885 46.7072 16.395 45.3011 17.8011C43.895 19.2072 41.9885 19.998 40 20ZM20 5C19.3372 5.00066 18.7017 5.26427 18.233 5.73296C17.7643 6.20166 17.5007 6.83716 17.5 7.5V12.5C17.5007 13.1628 17.7643 13.7983 18.233 14.267C18.7017 14.7357 19.3372 14.9993 20 15H40C40.6628 14.9993 41.2983 14.7357 41.767 14.267C42.2357 13.7983 42.4993 13.1628 42.5 12.5V7.5C42.4993 6.83716 42.2357 6.20166 41.767 5.73296C41.2983 5.26427 40.6628 5.00066 40 5H20Z" fill="#0C2191"/>
</svg>
