<svg width="71" height="71" viewBox="0 0 71 71" fill="none" xmlns="http://www.w3.org/2000/svg">
<path d="M35.5 17.75L32.3272 20.8407L44.7078 33.2812H17.75V37.7188H44.7078L32.3272 50.0838L35.5 53.25L53.25 35.5L35.5 17.75Z" fill="#858585"/>
<path d="M35.5 66.5625C29.3564 66.5625 23.3508 64.7407 18.2426 61.3275C13.1344 57.9143 9.15305 53.063 6.80201 47.3871C4.45096 41.7112 3.83582 35.4656 5.03437 29.44C6.23292 23.4145 9.19134 17.8797 13.5355 13.5355C17.8797 9.19134 23.4145 6.23292 29.44 5.03437C35.4656 3.83582 41.7112 4.45096 47.3871 6.80201C53.063 9.15305 57.9143 13.1344 61.3275 18.2426C64.7407 23.3508 66.5625 29.3564 66.5625 35.5C66.5531 43.7354 63.2775 51.6308 57.4541 57.4541C51.6308 63.2775 43.7354 66.5531 35.5 66.5625ZM35.5 8.87501C30.2341 8.87501 25.0864 10.4365 20.708 13.3621C16.3295 16.2877 12.9169 20.446 10.9017 25.3111C8.88654 30.1762 8.35927 35.5295 9.38661 40.6943C10.4139 45.859 12.9497 50.6032 16.6733 54.3267C20.3969 58.0503 25.141 60.5861 30.3057 61.6134C35.4705 62.6408 40.8239 62.1135 45.689 60.0983C50.554 58.0831 54.7123 54.6705 57.6379 50.2921C60.5635 45.9136 62.125 40.7659 62.125 35.5C62.1168 28.4411 59.309 21.6737 54.3177 16.6824C49.3263 11.691 42.5589 8.88324 35.5 8.87501Z" fill="#858585"/>
</svg>
