<svg width="57" height="57" viewBox="0 0 57 57" fill="none" xmlns="http://www.w3.org/2000/svg">
<path d="M55.789 44.0482L42.7532 31.013C40.1816 28.4416 36.341 27.9406 33.2463 29.4657L21.3794 17.5993V10.6865L7.13017 0L0.00556601 7.1243L10.6925 21.3729H17.6056L29.4725 33.2393C27.9585 36.334 28.4483 40.1744 31.0199 42.7458L44.0557 55.7811C45.681 57.4063 48.3081 57.4063 49.9223 55.7811L55.789 49.9147C57.4031 48.2894 57.4031 45.6623 55.789 44.0482ZM36.931 25.0464C40.0815 25.0464 43.0426 26.2709 45.2691 28.4972L47.4287 30.6568C49.1876 29.8887 50.8574 28.82 52.3046 27.3729C56.4346 23.243 57.8373 17.4323 56.5237 12.1558C56.2788 11.154 55.0209 10.8089 54.2861 11.5436L46.0038 19.8256L38.445 18.5677L37.1871 11.0093L45.4694 2.72727C46.2042 1.99258 45.8479 0.734694 44.8349 0.478664C39.5582 -0.823748 33.7472 0.57885 29.6283 4.69759C26.4557 7.87013 24.9639 12.0557 25.0419 16.2301L34.1814 25.3692C35.0831 25.1577 36.0182 25.0464 36.931 25.0464ZM25.3647 34.1744L19.0527 27.8627L2.08729 44.8386C-0.695762 47.6215 -0.695762 52.1299 2.08729 54.9128C4.87033 57.6957 9.37887 57.6957 12.1619 54.9128L25.9213 41.154C25.0753 38.9388 24.8192 36.5232 25.3647 34.1744ZM7.13017 52.5417C5.66072 52.5417 4.45844 51.3395 4.45844 49.8701C4.45844 48.3896 5.64959 47.1985 7.13017 47.1985C8.61075 47.1985 9.8019 48.3896 9.8019 49.8701C9.8019 51.3395 8.61075 52.5417 7.13017 52.5417Z" fill="#0C2191"/>
</svg>
