<svg width="54" height="54" viewBox="0 0 54 54" fill="none" xmlns="http://www.w3.org/2000/svg">
<path d="M27 0.333374C12.296 0.333374 0.333344 12.296 0.333344 27V38.048C0.333344 40.7787 2.72534 43 5.66668 43H8.33334C9.04059 43 9.71886 42.7191 10.219 42.219C10.7191 41.7189 11 41.0406 11 40.3334V26.6187C11 25.9115 10.7191 25.2332 10.219 24.7331C9.71886 24.233 9.04059 23.952 8.33334 23.952H5.91201C7.39468 13.632 16.2747 5.66671 27 5.66671C37.7253 5.66671 46.6053 13.632 48.088 23.952H45.6667C44.9594 23.952 44.2812 24.233 43.7811 24.7331C43.281 25.2332 43 25.9115 43 26.6187V43C43 45.9414 40.608 48.3334 37.6667 48.3334H32.3333V45.6667H21.6667V53.6667H37.6667C43.5493 53.6667 48.3333 48.8827 48.3333 43C51.2747 43 53.6667 40.7787 53.6667 38.048V27C53.6667 12.296 41.704 0.333374 27 0.333374Z" fill="#0C2191"/>
</svg>
