<svg width="20" height="18" viewBox="0 0 20 18" fill="none" xmlns="http://www.w3.org/2000/svg">
<path d="M17.5625 4.1875H2.4375C2.0578 4.1875 1.75 4.4953 1.75 4.875V15.875C1.75 16.2547 2.0578 16.5625 2.4375 16.5625H17.5625C17.9422 16.5625 18.25 16.2547 18.25 15.875V4.875C18.25 4.4953 17.9422 4.1875 17.5625 4.1875Z" stroke="#0E00C9" stroke-width="1.6" stroke-linecap="round" stroke-linejoin="round"/>
<path d="M13.4375 4.1875V2.8125C13.4375 2.44783 13.2926 2.09809 13.0348 1.84023C12.7769 1.58237 12.4272 1.4375 12.0625 1.4375H7.9375C7.57283 1.4375 7.22309 1.58237 6.96523 1.84023C6.70737 2.09809 6.5625 2.44783 6.5625 2.8125V4.1875" stroke="#0E00C9" stroke-width="1.6" stroke-linecap="round" stroke-linejoin="round"/>
<path d="M18.25 8.85352C15.7426 10.3036 12.8965 11.0656 10 11.0621C7.10292 11.0696 4.25583 10.3075 1.75 8.85352" stroke="#0E00C9" stroke-width="1.6" stroke-linecap="round" stroke-linejoin="round"/>
<path d="M8.96875 8.3125H11.0312" stroke="#0E00C9" stroke-width="1.6" stroke-linecap="round" stroke-linejoin="round"/>
</svg>
