<svg width="75" height="54" viewBox="0 0 75 54" fill="none" xmlns="http://www.w3.org/2000/svg">
<path d="M68.9516 0H6.04839C4.44671 0.00928965 2.91289 0.756991 1.78031 2.08059C0.64774 3.40419 0.00794894 5.19671 0 7.06854V46.6524C0.00794894 48.5242 0.64774 50.3167 1.78031 51.6403C2.91289 52.9639 4.44671 53.7116 6.04839 53.7209H68.9516C70.5533 53.7116 72.0871 52.9639 73.2197 51.6403C74.3523 50.3167 74.9921 48.5242 75 46.6524V7.06854C74.9921 5.19671 74.3523 3.40419 73.2197 2.08059C72.0871 0.756991 70.5533 0.00928965 68.9516 0ZM26.7944 45.2386L9.10282 26.8604L26.7944 8.48225H48.2056L65.8972 26.8604L48.2056 45.2386H26.7944ZM67.7419 17.4239L59.1532 8.48225H67.7419V17.4239ZM15.8468 8.48225L7.25806 17.4239V8.48225H15.8468ZM7.25806 36.2969L15.8468 45.2386H7.25806V36.2969ZM59.1532 45.2386L67.7419 36.2969V45.2386H59.1532ZM37.5 12.7234C35.1075 12.7234 32.7687 13.5525 30.7794 15.1059C28.7901 16.6593 27.2396 18.8672 26.324 21.4504C25.4085 24.0336 25.1689 26.8761 25.6357 29.6185C26.1024 32.3608 27.2545 34.8798 28.9463 36.8569C30.6381 38.834 32.7935 40.1804 35.14 40.7259C37.4866 41.2714 39.9188 40.9914 42.1292 39.9214C44.3396 38.8514 46.2289 37.0394 47.5581 34.7146C48.8873 32.3898 49.5968 29.6565 49.5968 26.8604C49.5968 23.1111 48.3223 19.5152 46.0537 16.864C43.7851 14.2128 40.7083 12.7234 37.5 12.7234ZM37.5 32.5153C36.543 32.5153 35.6075 32.1836 34.8118 31.5623C34.016 30.9409 33.3958 30.0577 33.0296 29.0245C32.6634 27.9912 32.5676 26.8542 32.7543 25.7572C32.941 24.6603 33.4018 23.6527 34.0785 22.8619C34.7552 22.071 35.6174 21.5325 36.556 21.3143C37.4946 21.0961 38.4675 21.2081 39.3517 21.6361C40.2359 22.0641 40.9916 22.7889 41.5232 23.7188C42.0549 24.6487 42.3387 25.742 42.3387 26.8604C42.3387 28.3602 41.8289 29.7985 40.9215 30.859C40.014 31.9195 38.7833 32.5153 37.5 32.5153Z" fill="#0C2191"/>
</svg>
