<svg width="48" height="36" viewBox="0 0 48 36" fill="none" xmlns="http://www.w3.org/2000/svg">
<path d="M4.75 27.5V4.75C4.75 3.8217 5.11875 2.9315 5.77513 2.2751C6.4315 1.6187 7.3217 1.25 8.25 1.25H39.75C40.6783 1.25 41.5685 1.6187 42.2249 2.2751C42.8813 2.9315 43.25 3.8217 43.25 4.75V27.5" stroke="#0E00C9" stroke-width="2" stroke-linecap="round" stroke-linejoin="round"/>
<path d="M1.25 27.5H46.75V31C46.75 31.9283 46.3813 32.8185 45.7249 33.4749C45.0685 34.1313 44.1783 34.5 43.25 34.5H4.75C3.82174 34.5 2.9315 34.1313 2.27513 33.4749C1.61875 32.8185 1.25 31.9283 1.25 31V27.5Z" stroke="#0E00C9" stroke-width="2" stroke-linecap="round" stroke-linejoin="round"/>
<path d="M27.5 8.25H20.5" stroke="#22EDB0" stroke-width="2" stroke-linecap="round" stroke-linejoin="round"/>
</svg>
