<svg width="40" height="40" viewBox="0 0 40 40" fill="none" xmlns="http://www.w3.org/2000/svg">
<g clip-path="url(#clip0_2350_7249)">
<path d="M40 27.3382V2.2832H0V27.3382H40ZM6.17172 24.9945C6.68242 22.2546 8.64109 20.4304 11.2309 20.4304C13.9055 20.4304 15.9516 22.4115 16.322 24.9945H6.17172ZM12.5055 17.2843C12.1711 17.6245 11.7182 17.8118 11.2305 17.8118C10.3148 17.8118 9.48523 17.087 9.48523 16.146C9.48523 15.2274 10.2681 14.4801 11.2305 14.4801C12.1932 14.4801 12.9766 15.2274 12.9766 16.146C12.9766 16.5699 12.8086 16.9748 12.5055 17.2843ZM2.42188 24.9945V4.62695H37.5781V24.9945H18.6819C18.3741 22.271 16.8813 19.9046 14.3376 18.7528C14.9726 18.0253 15.3203 17.1086 15.3203 16.146C15.3203 13.935 13.4856 12.1364 11.2305 12.1364C8.97586 12.1364 7.14148 13.935 7.14148 16.146C7.14148 17.1128 7.49141 18.0324 8.13086 18.7607C5.83359 19.8331 4.20805 22.1053 3.79852 24.9945H2.42188Z" fill="#0C2191"/>
<path d="M40 32.5437H13.4553C12.9457 30.872 11.3562 29.7148 9.61523 29.7148C7.82328 29.7201 6.30391 30.9126 5.80227 32.5437H0V34.8875H5.80094C6.31023 36.5554 7.89836 37.7164 9.63859 37.7164C11.3705 37.7113 12.946 36.5434 13.4528 34.8875H40V32.5437ZM11.2852 33.7142C11.2842 34.6165 10.5329 35.3699 9.6318 35.3726C8.72789 35.3726 7.96773 34.6253 7.97023 33.7156C7.97023 32.8046 8.71125 32.0613 9.62227 32.0585C10.5267 32.0585 11.2849 32.8071 11.2852 33.7142Z" fill="#0C2191"/>
<path d="M23.8867 8.66211V19.8747L35.0993 14.2684L23.8867 8.66211ZM26.2305 12.4544L29.8584 14.2684L26.2305 16.0824V12.4544Z" fill="#0C2191"/>
</g>
<defs>
<clipPath id="clip0_2350_7249">
<rect width="40" height="40" fill="white"/>
</clipPath>
</defs>
</svg>
