<svg width="40" height="40" viewBox="0 0 40 40" fill="none" xmlns="http://www.w3.org/2000/svg">
<path d="M34.9194 0H10.5436C7.6156 0 5.23349 2.41023 5.23349 5.33828V20.2056C1.97896 20.9433 0.183181 24.6209 1.61474 27.644V40L6.40536 36.4914L11.196 40V35.1859H33.1093V9.49297H38.885V9.45625V3.99375C38.885 1.80711 37.1061 0 34.9194 0ZM6.40536 22.4172C7.92146 22.4172 9.21849 23.6137 9.35169 25.1221C9.50224 26.8261 8.10888 28.3313 6.40536 28.3313C4.6563 28.3313 3.25935 26.755 3.46974 25.0173C3.64701 23.5539 4.93169 22.4172 6.40536 22.4172ZM8.85224 35.3947L6.40536 33.5648L3.95849 35.3947V30.0727C5.48372 30.8658 7.32708 30.8658 8.85224 30.0726V35.1859V35.3947ZM30.7656 32.8422H11.1961V27.6445C12.6155 24.6269 10.839 20.9424 7.57732 20.204V5.33828C7.57732 3.70258 8.90802 2.37188 10.5437 2.37188H31.1126C30.8842 2.87922 30.7657 3.43758 30.7657 3.99375L30.7656 32.8422ZM34.8236 2.37078C35.7179 2.37078 36.5413 3.09945 36.5413 3.99375V7.1125H33.1093V3.99375C33.1093 3.09945 33.9293 2.37078 34.8236 2.37078Z" fill="#0C2191"/>
<path d="M16.2617 27.1934H28.0053V29.5372H16.2617V27.1934Z" fill="#0C2191"/>
<path d="M15.8672 6.08984H27.9549V8.43359H15.8672V6.08984Z" fill="#0C2191"/>
<path d="M10.3359 10.6387H27.9572V12.9824H10.3359V10.6387Z" fill="#0C2191"/>
<path d="M10.3867 15.1855H28.008V17.5292H10.3867V15.1855Z" fill="#0C2191"/>
<path d="M10.3438 6.08984H12.6974V8.43359H10.3438V6.08984Z" fill="#0C2191"/>
</svg>
