<svg width="50" height="50" viewBox="0 0 50 50" fill="none" xmlns="http://www.w3.org/2000/svg">
<path d="M24.9993 12.9469C25.8873 12.9469 26.739 12.5941 27.367 11.9661C27.9949 11.3382 28.3477 10.4865 28.3477 9.59844C28.3477 8.71038 27.9949 7.85869 27.367 7.23073C26.739 6.60278 25.8873 6.25 24.9993 6.25C24.1112 6.25 23.2595 6.60278 22.6316 7.23073C22.0036 7.85869 21.6508 8.71038 21.6508 9.59844C21.6508 10.4865 22.0036 11.3382 22.6316 11.9661C23.2595 12.5941 24.1112 12.9469 24.9993 12.9469ZM10.4118 17.5406L20.5368 18.5281V26.3406L19.5274 40.6688C19.5104 40.9632 19.6027 41.2537 19.7867 41.4843C19.9707 41.7149 20.2333 41.8694 20.5242 41.9182C20.8152 41.967 21.1139 41.9067 21.363 41.7487C21.6122 41.5908 21.7942 41.3464 21.8743 41.0625L24.4555 28.5094C24.5961 27.9469 25.3961 27.9469 25.5368 28.5094L28.1243 41.0594C28.2015 41.3463 28.3826 41.5943 28.6325 41.755C28.8824 41.9158 29.1832 41.9778 29.4763 41.9291C29.7694 41.8804 30.0339 41.7244 30.2184 41.4914C30.4028 41.2585 30.4941 40.9652 30.4743 40.6688L29.468 26.3438V18.5312L39.5899 17.5437C39.885 17.501 40.1532 17.3488 40.3412 17.1174C40.5292 16.8861 40.6233 16.5924 40.6048 16.2948C40.5863 15.9973 40.4566 15.7175 40.2413 15.5112C40.0261 15.3049 39.7411 15.1871 39.443 15.1812H10.5586C10.2606 15.1871 9.97557 15.3049 9.76033 15.5112C9.54508 15.7175 9.41532 15.9973 9.39682 16.2948C9.37832 16.5924 9.47244 16.8861 9.66047 17.1174C9.84851 17.3488 10.1167 17.4979 10.4118 17.5406Z" fill="#0C2191"/>
<path d="M25 0C18.3696 0 12.0107 2.63392 7.32233 7.32233C2.63392 12.0107 0 18.3696 0 25C0 31.6304 2.63392 37.9893 7.32233 42.6777C12.0107 47.3661 18.3696 50 25 50C31.6304 50 37.9893 47.3661 42.6777 42.6777C47.3661 37.9893 50 31.6304 50 25C50 18.3696 47.3661 12.0107 42.6777 7.32233C37.9893 2.63392 31.6304 0 25 0ZM3.125 25C3.125 19.1984 5.42968 13.6344 9.53204 9.53204C13.6344 5.42968 19.1984 3.125 25 3.125C30.8016 3.125 36.3656 5.42968 40.468 9.53204C44.5703 13.6344 46.875 19.1984 46.875 25C46.875 30.8016 44.5703 36.3656 40.468 40.468C36.3656 44.5703 30.8016 46.875 25 46.875C19.1984 46.875 13.6344 44.5703 9.53204 40.468C5.42968 36.3656 3.125 30.8016 3.125 25Z" fill="#0C2191"/>
</svg>
