<svg width="64" height="64" viewBox="0 0 64 64" fill="none" xmlns="http://www.w3.org/2000/svg">
<path d="M48.0007 26.666C50.0536 26.6659 52.0629 27.2582 53.7875 28.3718C55.5121 29.4854 56.8787 31.073 57.7233 32.9441C58.5679 34.8152 58.8546 36.8903 58.5491 38.9204C58.2435 40.9504 57.3586 42.8491 56.0007 44.3887V55.5673C56.0007 56.0674 55.873 56.5592 55.6295 56.996C55.386 57.4328 55.0349 57.8 54.6096 58.063C54.1842 58.3259 53.6987 58.4757 53.1991 58.4981C52.6996 58.5206 52.2026 58.415 51.7553 58.1913L48.0007 56.314L44.246 58.1913C43.7987 58.415 43.3017 58.5206 42.8022 58.4981C42.3026 58.4757 41.8171 58.3259 41.3917 58.063C40.9664 57.8 40.6153 57.4328 40.3718 56.996C40.1283 56.5592 40.0006 56.0674 40.0007 55.5673V44.3887C38.6427 42.8491 37.7578 40.9504 37.4522 38.9204C37.1467 36.8903 37.4334 34.8152 38.278 32.9441C39.1226 31.073 40.4892 29.4854 42.2138 28.3718C43.9384 27.2582 45.9478 26.6659 48.0007 26.666ZM53.334 10.666C54.7485 10.666 56.105 11.2279 57.1052 12.2281C58.1054 13.2283 58.6673 14.5849 58.6673 15.9993V21.3327C58.6673 22.0399 58.3864 22.7182 57.8863 23.2183C57.3862 23.7184 56.7079 23.9993 56.0007 23.9993C55.2934 23.9993 54.6151 23.7184 54.115 23.2183C53.6149 22.7182 53.334 22.0399 53.334 21.3327V15.9993H10.6673V47.9993H32.0007C32.7079 47.9993 33.3862 48.2803 33.8863 48.7804C34.3864 49.2805 34.6673 49.9588 34.6673 50.666C34.6673 51.3733 34.3864 52.0515 33.8863 52.5516C33.3862 53.0517 32.7079 53.3327 32.0007 53.3327H10.6673C9.25283 53.3327 7.89628 52.7708 6.89608 51.7706C5.89589 50.7704 5.33398 49.4138 5.33398 47.9993V15.9993C5.33398 14.5849 5.89589 13.2283 6.89608 12.2281C7.89628 11.2279 9.25283 10.666 10.6673 10.666H53.334ZM50.6673 47.6633C48.9181 48.1138 47.0832 48.1138 45.334 47.6633V51.6847L46.8087 50.9487C47.1788 50.7637 47.5869 50.6674 48.0007 50.6674C48.4144 50.6674 48.8225 50.7637 49.1927 50.9487L50.6673 51.6847V47.6633ZM48.0007 31.9993C46.5862 31.9993 45.2296 32.5613 44.2294 33.5614C43.2292 34.5616 42.6673 35.9182 42.6673 37.3327C42.6673 38.7472 43.2292 40.1037 44.2294 41.1039C45.2296 42.1041 46.5862 42.666 48.0007 42.666C49.4151 42.666 50.7717 42.1041 51.7719 41.1039C52.7721 40.1037 53.334 38.7472 53.334 37.3327C53.334 35.9182 52.7721 34.5616 51.7719 33.5614C50.7717 32.5613 49.4151 31.9993 48.0007 31.9993ZM24.0007 34.666C24.6803 34.6668 25.3341 34.927 25.8283 35.3936C26.3225 35.8602 26.6199 36.4979 26.6598 37.1764C26.6996 37.8549 26.4789 38.523 26.0426 39.0442C25.6064 39.5654 24.9876 39.9004 24.3127 39.9807L24.0007 39.9993H18.6673C17.9876 39.9986 17.3339 39.7383 16.8397 39.2718C16.3454 38.8052 16.048 38.1675 16.0082 37.489C15.9684 36.8104 16.1891 36.1423 16.6254 35.6211C17.0616 35.0999 17.6804 34.765 18.3553 34.6847L18.6673 34.666H24.0007ZM34.6673 23.9993C35.3746 23.9993 36.0528 24.2803 36.5529 24.7804C37.053 25.2805 37.334 25.9588 37.334 26.666C37.334 27.3733 37.053 28.0515 36.5529 28.5516C36.0528 29.0517 35.3746 29.3327 34.6673 29.3327H18.6673C17.9601 29.3327 17.2818 29.0517 16.7817 28.5516C16.2816 28.0515 16.0007 27.3733 16.0007 26.666C16.0007 25.9588 16.2816 25.2805 16.7817 24.7804C17.2818 24.2803 17.9601 23.9993 18.6673 23.9993H34.6673Z" fill="#0C2191"/>
</svg>
