<svg width="60" height="48" viewBox="0 0 60 48" fill="none" xmlns="http://www.w3.org/2000/svg">
<path fill-rule="evenodd" clip-rule="evenodd" d="M35.3327 10.666C34.6254 10.666 33.9472 10.947 33.4471 11.4471C32.947 11.9472 32.666 12.6254 32.666 13.3327V34.666C32.666 35.3733 32.947 36.0515 33.4471 36.5516C33.9472 37.0517 34.6254 37.3327 35.3327 37.3327H45.9993C46.7066 37.3327 47.3849 37.0517 47.885 36.5516C48.3851 36.0515 48.666 35.3733 48.666 34.666V13.3327C48.666 12.6254 48.3851 11.9472 47.885 11.4471C47.3849 10.947 46.7066 10.666 45.9993 10.666H35.3327ZM43.3327 15.9993H37.9993V31.9993H43.3327V15.9993Z" fill="#0C2191"/>
<path d="M13.9987 10.666C13.2915 10.666 12.6132 10.947 12.1131 11.4471C11.613 11.9472 11.332 12.6254 11.332 13.3327C11.332 14.0399 11.613 14.7182 12.1131 15.2183C12.6132 15.7184 13.2915 15.9993 13.9987 15.9993H24.6654C25.3726 15.9993 26.0509 15.7184 26.551 15.2183C27.0511 14.7182 27.332 14.0399 27.332 13.3327C27.332 12.6254 27.0511 11.9472 26.551 11.4471C26.0509 10.947 25.3726 10.666 24.6654 10.666H13.9987ZM13.9987 21.3327C13.2915 21.3327 12.6132 21.6136 12.1131 22.1137C11.613 22.6138 11.332 23.2921 11.332 23.9993C11.332 24.7066 11.613 25.3849 12.1131 25.885C12.6132 26.3851 13.2915 26.666 13.9987 26.666H24.6654C25.3726 26.666 26.0509 26.3851 26.551 25.885C27.0511 25.3849 27.332 24.7066 27.332 23.9993C27.332 23.2921 27.0511 22.6138 26.551 22.1137C26.0509 21.6136 25.3726 21.3327 24.6654 21.3327H13.9987ZM11.332 34.666C11.332 33.9588 11.613 33.2805 12.1131 32.7804C12.6132 32.2803 13.2915 31.9993 13.9987 31.9993H24.6654C25.3726 31.9993 26.0509 32.2803 26.551 32.7804C27.0511 33.2805 27.332 33.9588 27.332 34.666C27.332 35.3733 27.0511 36.0515 26.551 36.5516C26.0509 37.0517 25.3726 37.3327 24.6654 37.3327H13.9987C13.2915 37.3327 12.6132 37.0517 12.1131 36.5516C11.613 36.0515 11.332 35.3733 11.332 34.666Z" fill="#0C2191"/>
<path fill-rule="evenodd" clip-rule="evenodd" d="M8.66602 0C6.54428 0 4.50945 0.842855 3.00916 2.34315C1.50887 3.84344 0.666016 5.87827 0.666016 8V40C0.666016 42.1217 1.50887 44.1566 3.00916 45.6569C4.50945 47.1571 6.54428 48 8.66602 48H51.3327C53.4544 48 55.4892 47.1571 56.9895 45.6569C58.4898 44.1566 59.3327 42.1217 59.3327 40V8C59.3327 5.87827 58.4898 3.84344 56.9895 2.34315C55.4892 0.842855 53.4544 0 51.3327 0H8.66602ZM51.3327 5.33333H8.66602C7.95877 5.33333 7.28049 5.61429 6.7804 6.11438C6.2803 6.61448 5.99935 7.29276 5.99935 8V40C5.99935 40.7072 6.2803 41.3855 6.7804 41.8856C7.28049 42.3857 7.95877 42.6667 8.66602 42.6667H51.3327C52.0399 42.6667 52.7182 42.3857 53.2183 41.8856C53.7184 41.3855 53.9994 40.7072 53.9994 40V8C53.9994 7.29276 53.7184 6.61448 53.2183 6.11438C52.7182 5.61429 52.0399 5.33333 51.3327 5.33333Z" fill="#0C2191"/>
</svg>
