<svg width="40" height="40" viewBox="0 0 40 40" fill="none" xmlns="http://www.w3.org/2000/svg">
<g clip-path="url(#clip0_2350_7236)">
<mask id="mask0_2350_7236" style="mask-type:luminance" maskUnits="userSpaceOnUse" x="0" y="0" width="40" height="40">
<path d="M40 0H0V40H40V0Z" fill="white"/>
</mask>
<g mask="url(#mask0_2350_7236)">
<path d="M16.1672 29.1291C17.037 28.2776 17.5781 27.0916 17.5781 25.7812C17.5781 23.1966 15.4753 21.0938 12.8906 21.0938C10.3059 21.0938 8.20312 23.1966 8.20312 25.7812C8.20312 27.0916 8.7443 28.2776 9.61406 29.1291C8.0568 30.1833 7.03125 31.9662 7.03125 33.9844V39.9998L18.75 40V33.9844C18.75 31.9662 17.7245 30.1833 16.1672 29.1291ZM10.5469 25.7812C10.5469 24.4889 11.5983 23.4375 12.8906 23.4375C14.183 23.4375 15.2344 24.4889 15.2344 25.7812C15.2344 27.0736 14.183 28.125 12.8906 28.125C11.5983 28.125 10.5469 27.0736 10.5469 25.7812ZM16.4062 37.6562L9.375 37.6561V33.9844C9.375 32.0459 10.9521 30.4688 12.8906 30.4688C14.8291 30.4688 16.4062 32.0459 16.4062 33.9844V37.6562Z" fill="#0C2191"/>
<path d="M30.3859 29.1291C31.2557 28.2776 31.7969 27.0916 31.7969 25.7812C31.7969 23.1966 29.6941 21.0938 27.1094 21.0938C24.5247 21.0938 22.4219 23.1966 22.4219 25.7812C22.4219 27.0916 22.963 28.2776 23.8328 29.1291C22.2755 30.1833 21.25 31.9662 21.25 33.9844V39.9998L32.9688 40V33.9844C32.9688 31.9662 31.9432 30.1833 30.3859 29.1291ZM24.7656 25.7812C24.7656 24.4889 25.817 23.4375 27.1094 23.4375C28.4017 23.4375 29.4531 24.4889 29.4531 25.7812C29.4531 27.0736 28.4017 28.125 27.1094 28.125C25.817 28.125 24.7656 27.0736 24.7656 25.7812ZM30.625 37.6562L23.5938 37.6561V33.9844C23.5938 32.0459 25.1709 30.4688 27.1094 30.4688C29.0479 30.4688 30.625 32.0459 30.625 33.9844V37.6562Z" fill="#0C2191"/>
<path d="M7.03125 0V18.75H16.2L20 22.5499L23.7999 18.75H32.9688V0H7.03125ZM30.625 16.4062H22.8291L20 19.2354L17.1708 16.4062H9.375V2.34375H30.625V16.4062Z" fill="#0C2191"/>
</g>
</g>
<defs>
<clipPath id="clip0_2350_7236">
<rect width="40" height="40" fill="white"/>
</clipPath>
</defs>
</svg>
