<svg width="54" height="37" viewBox="0 0 54 37" fill="none" xmlns="http://www.w3.org/2000/svg">
<path d="M51.6531 15.6432L46.25 18.3339L39.25 4.94626L44.7187 2.21196C45.1252 2.00476 45.597 1.96666 46.0314 2.10606C46.4657 2.24536 46.8274 2.55076 47.0375 2.95566L52.4187 13.2588C52.5279 13.4651 52.5946 13.6911 52.6151 13.9235C52.6356 14.1559 52.6095 14.3901 52.5381 14.6123C52.4668 14.8345 52.3517 15.0401 52.1998 15.2172C52.0478 15.3942 51.8619 15.5391 51.6531 15.6432Z" stroke="#0E00C9" stroke-width="2" stroke-linecap="round" stroke-linejoin="round"/>
<path d="M7.74962 18.1154L2.3465 15.4029C2.13846 15.3009 1.95304 15.1582 1.80128 14.9831C1.64951 14.8081 1.5345 14.6043 1.46308 14.3839C1.39165 14.1635 1.36527 13.931 1.38551 13.7002C1.40574 13.4694 1.47218 13.245 1.58087 13.0404L6.96212 2.73727C7.17263 2.33267 7.53279 2.02617 7.96589 1.88317C8.399 1.74017 8.87082 1.77187 9.28083 1.97167L14.7496 4.70597L7.74962 18.1154Z" stroke="#0E00C9" stroke-width="2" stroke-linecap="round" stroke-linejoin="round"/>
<path d="M46.25 18.334L42.75 22.4464L34.7 30.4964C34.4806 30.7016 34.2148 30.8506 33.9252 30.9306C33.6357 31.0106 33.3311 31.0192 33.0375 30.9558L20.35 27.7839C20.1182 27.7193 19.9023 27.6076 19.7156 27.4558L7.75 18.1152" stroke="#0E00C9" stroke-width="2" stroke-linecap="round" stroke-linejoin="round"/>
<path d="M42.7487 22.4473L33.1237 15.4473L30.3237 17.5473C29.1106 18.4528 27.6374 18.9419 26.1237 18.9419C24.61 18.9419 23.1368 18.4528 21.9237 17.5473L20.7425 16.6505C20.5427 16.4986 20.3775 16.3061 20.2577 16.0855C20.138 15.865 20.0664 15.6216 20.0478 15.3714C20.0292 15.1211 20.064 14.8698 20.1498 14.634C20.2356 14.3982 20.3705 14.1833 20.5456 14.0036L29.1206 5.45047C29.2817 5.29017 29.4728 5.16317 29.683 5.07687C29.8932 4.99057 30.1183 4.94657 30.3456 4.94727H39.2487" stroke="#0E00C9" stroke-width="2" stroke-linecap="round" stroke-linejoin="round"/>
<path d="M14.8789 4.70647L26.1008 1.42527C26.4995 1.31087 26.9259 1.34187 27.3039 1.51277L34.8727 4.94717" stroke="#0E00C9" stroke-width="2" stroke-linecap="round" stroke-linejoin="round"/>
<path d="M23.5 35.5719L16.9156 33.9094C16.6473 33.8488 16.3989 33.7208 16.1937 33.5375L11.25 29.25" stroke="#22EDB0" stroke-width="2" stroke-linecap="round" stroke-linejoin="round"/>
</svg>
