<svg width="26" height="25" viewBox="0 0 26 25" fill="none" xmlns="http://www.w3.org/2000/svg">
<path d="M7.75 5.16667V2.58333C7.75 1.87292 8.00317 1.26454 8.5095 0.758208C9.01497 0.252736 9.62292 0 10.3333 0H15.5C16.2104 0 16.8188 0.252736 17.3251 0.758208C17.8306 1.26454 18.0833 1.87292 18.0833 2.58333V5.16667H23.25C23.9604 5.16667 24.5688 5.41983 25.0751 5.92617C25.5806 6.43164 25.8333 7.03958 25.8333 7.75V14.2083H16.7917V11.625H9.04167V14.2083H0V7.75C0 7.03958 0.253167 6.43164 0.7595 5.92617C1.26497 5.41983 1.87292 5.16667 2.58333 5.16667H7.75ZM10.3333 5.16667H15.5V2.58333H10.3333V5.16667ZM11.625 16.7917V14.2083H14.2083V16.7917H11.625ZM0 16.7917H9.04167V19.375H16.7917V16.7917H25.8333V21.9583C25.8333 22.6687 25.5806 23.2771 25.0751 23.7835C24.5688 24.2889 23.9604 24.5417 23.25 24.5417H2.58333C1.87292 24.5417 1.26497 24.2889 0.7595 23.7835C0.253167 23.2771 0 22.6687 0 21.9583V16.7917Z" fill="#0C2191"/>
</svg>
