<svg width="38" height="26" viewBox="0 0 38 26" fill="none" xmlns="http://www.w3.org/2000/svg">
<path d="M27.2148 0.128906L25.8086 0.143984L25.8414 3.1893C22.2654 4.22719 17.3623 4.73133 12.8356 5.03094C15.5776 12.5531 20.5979 18.6067 25.1673 25.1192C26.7859 23.5837 29.1602 22.6205 31.6876 22.3059C30.0626 20.8912 28.8255 20.1211 27.0913 16.803C29.5342 19.7002 31.199 20.5895 33.1555 21.6472C33.4105 20.6242 33.8538 19.7223 34.6181 19.0945C35.2952 18.5383 36.1827 18.2622 37.2377 18.2864C33.5756 13.6174 29.2947 9.14156 27.2509 3.4868L27.2148 0.128984V0.128906ZM11.7535 1.04102L10.3474 1.06008C10.3474 1.06008 10.367 2.49289 10.3912 3.94836C10.4034 4.67617 10.4166 5.40953 10.4294 5.97406C10.4341 6.18 10.4385 6.33187 10.443 6.48516C7.75719 13.0268 5.04031 19.0627 0.761719 24.7228C3.38945 24.6145 5.94344 24.6288 8.46109 24.7196C10.2004 19.8277 10.285 14.1841 11.2445 8.93789C12.1364 14.2943 12.0699 19.832 13.8603 25.0184C17.2167 25.2591 20.5548 25.5807 23.9658 25.872C19.6166 19.6883 14.7304 13.7597 11.8472 6.39031C11.8433 6.25109 11.8394 6.125 11.8353 5.94211C11.8227 5.38305 11.8093 4.65125 11.7972 3.92492C11.773 2.47227 11.7535 1.04102 11.7535 1.04102Z" fill="#0C2191"/>
</svg>
