<svg width="65" height="65" viewBox="0 0 65 65" fill="none" xmlns="http://www.w3.org/2000/svg">
<rect x="0.5" y="0.046875" width="64" height="64" rx="32" fill="#D2FFEF"/>
<path fill-rule="evenodd" clip-rule="evenodd" d="M29.5 43.0469C30.6952 43.0469 31.768 43.2159 32.501 44.0469C33.232 43.2159 34.3048 43.0469 35.5 43.0469H45.5C46.0523 43.0469 46.5 43.4946 46.5 44.0469C46.5 44.5992 46.0523 45.0469 45.5 45.0469H35.5C34.3048 45.0469 33.232 45.2159 32.501 46.0469C31.8169 45.2713 30.8367 45.1182 29.7373 45.0538L29.5 45.0469H19.5C18.9477 45.0469 18.5 44.5992 18.5 44.0469C18.5 43.4946 18.9477 43.0469 19.5 43.0469H29.5ZM45.5 23.0469C46.0523 23.0469 46.5 23.4946 46.5 24.0469V40.0469C46.5 40.5992 46.0523 41.0469 45.5 41.0469H35.5C34.3048 41.0469 33.232 41.5711 32.501 42.4022C31.8169 41.6265 30.8367 41.1182 29.7373 41.0538L29.5 41.0469H19.5C18.9477 41.0469 18.5 40.5992 18.5 40.0469V24.0469C18.5 23.4946 18.9477 23.0469 19.5 23.0469C20.0523 23.0469 20.5 23.4946 20.5 24.0469C20.5 25.0469 20.5 26.0469 20.5 27.0469C20.5 33.6743 25.8726 39.0469 32.5 39.0469C39.1274 39.0469 44.5 33.6743 44.5 27.0469C44.5 26.0469 44.5 25.0469 44.5 24.0469C44.5 23.4946 44.9477 23.0469 45.5 23.0469ZM32.5 17.0469C38.0228 17.0469 42.5 21.524 42.5 27.0469C42.5 32.5697 38.0228 37.0469 32.5 37.0469C26.9772 37.0469 22.5 32.5697 22.5 27.0469C22.5 21.524 26.9772 17.0469 32.5 17.0469ZM28.2712 31.1008L28.0074 31.2467C27.4675 31.5583 26.963 31.9244 26.5013 32.3374C27.5984 33.5827 29.0767 34.4823 30.7533 34.8557C29.6861 33.7971 28.8349 32.5216 28.2712 31.1008ZM36.7284 31.1L36.6274 31.3479C36.0656 32.6691 35.2528 33.8578 34.2489 34.8543C35.8199 34.5044 37.2168 33.6922 38.2894 32.5679L38.498 32.3399L38.3721 32.2263C37.8695 31.7932 37.3185 31.4147 36.7284 31.1ZM32.5 30.0469C31.6797 30.0469 30.8851 30.1566 30.1299 30.3622C30.6501 31.6728 31.4677 32.8312 32.4998 33.755C33.5323 32.8308 34.35 31.6722 34.8693 30.363C34.1142 30.1565 33.3199 30.0469 32.5 30.0469ZM25.367 23.4209L25.2985 23.5588C24.7869 24.613 24.5 25.7964 24.5 27.0469C24.5 28.3526 24.8128 29.5853 25.3676 30.6741C26.073 30.0709 26.8564 29.5564 27.7001 29.1466C27.5689 28.4675 27.5 27.7652 27.5 27.0469C27.5 26.3286 27.5689 25.6263 27.7003 24.9464C26.8564 24.5373 26.0731 24.023 25.367 23.4209ZM39.632 23.419L39.5097 23.5246C38.8359 24.0823 38.0945 24.5613 37.2996 24.9473C37.4312 25.627 37.5 26.3289 37.5 27.0469C37.5 27.7651 37.4312 28.4672 37.2997 29.147C38.1436 29.5564 38.9271 30.0709 39.6335 30.6733C40.1873 29.5849 40.5 28.3524 40.5 27.0469C40.5 25.7409 40.187 24.508 39.632 23.419ZM35.3939 25.6607L35.1859 25.7166C34.3263 25.9323 33.4265 26.0469 32.5 26.0469C31.4987 26.0469 30.5286 25.9131 29.6067 25.6624C29.5362 26.1129 29.5 26.5757 29.5 27.0469C29.5 27.5183 29.5362 27.9813 29.6061 28.4331C30.5289 28.1807 31.4988 28.0469 32.5 28.0469C33.5012 28.0469 34.4711 28.1807 35.393 28.4313C35.4638 27.9811 35.5 27.5182 35.5 27.0469C35.5 26.5755 35.4638 26.1126 35.3939 25.6607ZM32.5002 20.3388L32.3424 20.483C31.3845 21.382 30.6234 22.4882 30.1309 23.7302C30.8858 23.9372 31.6801 24.0469 32.5 24.0469C33.3204 24.0469 34.1151 23.9371 34.8703 23.7315C34.3499 22.421 33.5323 21.2626 32.5002 20.3388ZM30.7521 19.2385L30.5659 19.2823C29.073 19.6529 27.7457 20.4428 26.7162 21.5199L26.501 21.7539L26.6502 21.8867C27.1467 22.3117 27.6901 22.6837 28.2715 22.9937C28.8346 21.5724 29.6855 20.2969 30.7521 19.2385ZM34.2477 19.2383L34.351 19.3422C35.3693 20.3797 36.1835 21.6181 36.7287 22.9924C37.3695 22.6518 37.9633 22.2354 38.4993 21.7558C37.4014 20.511 35.9236 19.6118 34.2477 19.2383Z" fill="#0DA49A"/>
</svg>
