<svg width="65" height="65" viewBox="0 0 65 65" fill="none" xmlns="http://www.w3.org/2000/svg">
<rect x="0.5" y="0.046875" width="64" height="64" rx="32" fill="#FFF5EE"/>
<g clip-path="url(#clip0_1198_7854)">
<path fill-rule="evenodd" clip-rule="evenodd" d="M27.4997 34.0469C28.6039 34.0469 29.6375 34.1855 30.6006 34.442L31.0091 34.5591C31.25 34.6331 31.3853 34.8884 31.3113 35.1292C31.2817 35.2255 31.2211 35.3092 31.139 35.3675L31.0745 35.4137C29.509 36.5522 28.1794 38.0672 27.129 39.8866L26.9944 40.1242C26.7125 40.5618 26.5429 41.2439 26.4855 42.1705C26.4202 43.225 25.5459 44.0469 24.4893 44.0469H18.9096C17.5788 44.0469 16.5 43.0395 16.5 41.7969C16.5 41.4391 16.5914 41.0865 16.7665 40.7683C18.8662 36.954 22.4439 34.0469 27.4997 34.0469ZM38.4998 35.0469C43.096 35.0469 46.3485 37.6633 48.2572 41.0962C48.8103 42.0908 48.3864 43.3116 47.3104 43.8229C47.0006 43.9701 46.6573 44.0469 46.309 44.0469H30.6905L30.5341 44.0418L30.4426 44.0341L30.286 44.0124L30.1871 43.9932L30.032 43.9538L29.8788 43.9033L29.6966 43.8269L29.4679 43.7024L29.3116 43.5954L29.1707 43.4802L29.055 43.369L28.9429 43.243L28.8207 43.0773L28.7437 42.9511L28.6489 42.7572L28.5896 42.597L28.5567 42.4815L28.5227 42.3148C28.5077 42.2189 28.5 42.1213 28.5 42.0219C28.5 41.6999 28.5831 41.3825 28.7423 41.0961L28.9199 40.7857L29.1447 40.4167L29.3565 40.0908L29.5381 39.8264L29.8233 39.4369L30.0902 39.0978L30.2505 38.9049L30.4678 38.6556L30.7504 38.3507L30.9948 38.1032L31.2829 37.8296L31.528 37.6112L31.6492 37.5078L31.9888 37.2335L32.2413 37.0436L32.5356 36.8365L32.7118 36.7193L33.0867 36.4868L33.412 36.3023L33.6941 36.1547L34.0101 36.0023C35.329 35.3942 36.8252 35.0469 38.4998 35.0469ZM38.5 23.0469C40.7091 23.0469 42.5 24.9124 42.5 27.2136C42.5 29.5148 41.3197 33.0469 38.5 33.0469C35.6803 33.0469 34.5 29.5148 34.5 27.2136C34.5 24.9124 36.2909 23.0469 38.5 23.0469ZM27.5 20.0469C30.2614 20.0469 32.5 22.2855 32.5 25.0469C32.5 27.8083 31.0247 32.0469 27.5 32.0469C23.9753 32.0469 22.5 27.8083 22.5 25.0469C22.5 22.2855 24.7386 20.0469 27.5 20.0469Z" fill="#FF7A1A"/>
</g>
<defs>
<clipPath id="clip0_1198_7854">
<rect width="32" height="32" fill="white" transform="translate(16.5 16.0469)"/>
</clipPath>
</defs>
</svg>
