<svg width="33" height="32" viewBox="0 0 33 32" fill="none" xmlns="http://www.w3.org/2000/svg">
<path d="M21.8962 0.3125H16.5C16.1933 0.3125 15.8992 0.434319 15.6824 0.651158C15.4656 0.867997 15.3438 1.16209 15.3438 1.46875V6.15734C12.7998 6.44177 10.4498 7.6539 8.74336 9.56197C7.03687 11.47 6.09354 13.9402 6.09375 16.5H3.78125C2.86128 16.5 1.97899 16.8655 1.32847 17.516C0.677957 18.1665 0.3125 19.0488 0.3125 19.9688V30.375C0.3125 30.6817 0.434319 30.9758 0.651158 31.1926C0.867997 31.4094 1.16209 31.5312 1.46875 31.5312H13.0312V26.9062C13.0312 26.5996 13.1531 26.3055 13.3699 26.0887C13.5867 25.8718 13.8808 25.75 14.1875 25.75H18.8125C19.1192 25.75 19.4133 25.8718 19.6301 26.0887C19.8469 26.3055 19.9688 26.5996 19.9688 26.9062V31.5312H31.5312C31.8379 31.5312 32.132 31.4094 32.3488 31.1926C32.5657 30.9758 32.6875 30.6817 32.6875 30.375V19.9688C32.6875 19.0488 32.322 18.1665 31.6715 17.516C31.021 16.8655 30.1387 16.5 29.2188 16.5H26.9062C26.9065 13.9402 25.9631 11.47 24.2566 9.56197C22.5502 7.6539 20.2002 6.44177 17.6562 6.15734V4.9375H21.8962C22.1008 4.9375 22.2969 4.85625 22.4416 4.71162C22.5862 4.56698 22.6674 4.37082 22.6674 4.16628V1.08372C22.6674 0.879179 22.5862 0.683016 22.4416 0.538385C22.2969 0.393753 22.1008 0.3125 21.8962 0.3125ZM11.875 13.0312C12.1817 13.0312 12.4758 13.1531 12.6926 13.3699C12.9094 13.5867 13.0312 13.8808 13.0312 14.1875V17.6562C13.0312 17.9629 12.9094 18.257 12.6926 18.4738C12.4758 18.6907 12.1817 18.8125 11.875 18.8125C11.5683 18.8125 11.2742 18.6907 11.0574 18.4738C10.8406 18.257 10.7188 17.9629 10.7188 17.6562V14.1875C10.7188 13.8808 10.8406 13.5867 11.0574 13.3699C11.2742 13.1531 11.5683 13.0312 11.875 13.0312ZM21.125 13.0312C21.4317 13.0312 21.7258 13.1531 21.9426 13.3699C22.1594 13.5867 22.2812 13.8808 22.2812 14.1875V17.6562C22.2812 17.9629 22.1594 18.257 21.9426 18.4738C21.7258 18.6907 21.4317 18.8125 21.125 18.8125C20.8183 18.8125 20.5242 18.6907 20.3074 18.4738C20.0906 18.257 19.9688 17.9629 19.9688 17.6562V14.1875C19.9688 13.8808 20.0906 13.5867 20.3074 13.3699C20.5242 13.1531 20.8183 13.0312 21.125 13.0312ZM17.6562 14.1875V17.6562C17.6562 17.9629 17.5344 18.257 17.3176 18.4738C17.1008 18.6907 16.8067 18.8125 16.5 18.8125C16.1933 18.8125 15.8992 18.6907 15.6824 18.4738C15.4656 18.257 15.3438 17.9629 15.3438 17.6562V14.1875C15.3438 13.8808 15.4656 13.5867 15.6824 13.3699C15.8992 13.1531 16.1933 13.0312 16.5 13.0312C16.8067 13.0312 17.1008 13.1531 17.3176 13.3699C17.5344 13.5867 17.6562 13.8808 17.6562 14.1875ZM7.25 21.125C7.55666 21.125 7.85075 21.2468 8.06759 21.4637C8.28443 21.6805 8.40625 21.9746 8.40625 22.2812V25.75C8.40625 26.0567 8.28443 26.3508 8.06759 26.5676C7.85075 26.7844 7.55666 26.9062 7.25 26.9062C6.94334 26.9062 6.64925 26.7844 6.43241 26.5676C6.21557 26.3508 6.09375 26.0567 6.09375 25.75V22.2812C6.09375 21.9746 6.21557 21.6805 6.43241 21.4637C6.64925 21.2468 6.94334 21.125 7.25 21.125ZM25.75 21.125C26.0567 21.125 26.3508 21.2468 26.5676 21.4637C26.7844 21.6805 26.9062 21.9746 26.9062 22.2812V25.75C26.9062 26.0567 26.7844 26.3508 26.5676 26.5676C26.3508 26.7844 26.0567 26.9062 25.75 26.9062C25.4433 26.9062 25.1492 26.7844 24.9324 26.5676C24.7156 26.3508 24.5938 26.0567 24.5938 25.75V22.2812C24.5938 21.9746 24.7156 21.6805 24.9324 21.4637C25.1492 21.2468 25.4433 21.125 25.75 21.125Z" fill="#0C2191"/>
</svg>
