<svg width="64" height="64" viewBox="0 0 64 64" fill="none" xmlns="http://www.w3.org/2000/svg">
<rect width="64" height="64" rx="32" fill="#F4EFFD"/>
<path d="M49.0625 19.5312H14.9375C14.0686 19.5356 13.2365 19.8826 12.6221 20.4971C12.0076 21.1115 11.6606 21.9436 11.6562 22.8125V41.1875C11.6606 42.0564 12.0076 42.8885 12.6221 43.5029C13.2365 44.1174 14.0686 44.4644 14.9375 44.4688H49.0625C49.9314 44.4644 50.7635 44.1174 51.3779 43.5029C51.9924 42.8885 52.3394 42.0564 52.3438 41.1875V22.8125C52.3394 21.9436 51.9924 21.1115 51.3779 20.4971C50.7635 19.8826 49.9314 19.5356 49.0625 19.5312ZM26.1922 40.5312L16.5945 32L26.1922 23.4688H37.8078L47.4055 32L37.8078 40.5312H26.1922ZM48.4062 27.6195L43.7469 23.4688H48.4062V27.6195ZM20.2531 23.4688L15.5938 27.6195V23.4688H20.2531ZM15.5938 36.3805L20.2531 40.5312H15.5938V36.3805ZM43.7469 40.5312L48.4062 36.3805V40.5312H43.7469ZM32 25.4375C30.7021 25.4375 29.4333 25.8224 28.3541 26.5435C27.2749 27.2646 26.4337 28.2895 25.937 29.4886C25.4403 30.6878 25.3104 32.0073 25.5636 33.2803C25.8168 34.5533 26.4418 35.7226 27.3596 36.6404C28.2774 37.5582 29.4467 38.1832 30.7197 38.4364C31.9927 38.6896 33.3122 38.5597 34.5114 38.063C35.7105 37.5663 36.7354 36.7251 37.4565 35.6459C38.1776 34.5667 38.5625 33.2979 38.5625 32C38.5625 30.2595 37.8711 28.5903 36.6404 27.3596C35.4097 26.1289 33.7405 25.4375 32 25.4375ZM32 34.625C31.4808 34.625 30.9733 34.471 30.5416 34.1826C30.1099 33.8942 29.7735 33.4842 29.5748 33.0045C29.3761 32.5249 29.3242 31.9971 29.4254 31.4879C29.5267 30.9787 29.7767 30.511 30.1438 30.1438C30.511 29.7767 30.9787 29.5267 31.4879 29.4254C31.9971 29.3242 32.5249 29.3761 33.0045 29.5748C33.4842 29.7735 33.8942 30.1099 34.1826 30.5416C34.471 30.9733 34.625 31.4808 34.625 32C34.625 32.6962 34.3484 33.3639 33.8562 33.8562C33.3639 34.3484 32.6962 34.625 32 34.625Z" fill="#472177"/>
</svg>
