<svg width="24" height="26" viewBox="0 0 24 26" fill="none" xmlns="http://www.w3.org/2000/svg">
<path fill-rule="evenodd" clip-rule="evenodd" d="M2.40078 23.3992V2.59922H2.00078C1.68252 2.59922 1.3773 2.47279 1.15225 2.24775C0.927209 2.0227 0.800781 1.71748 0.800781 1.39922C0.800781 1.08096 0.927209 0.775734 1.15225 0.55069C1.3773 0.325647 1.68252 0.199219 2.00078 0.199219H22.0008C22.319 0.199219 22.6243 0.325647 22.8493 0.55069C23.0744 0.775734 23.2008 1.08096 23.2008 1.39922C23.2008 1.71748 23.0744 2.0227 22.8493 2.24775C22.6243 2.47279 22.319 2.59922 22.0008 2.59922H21.6008V23.3992H22.0008C22.319 23.3992 22.6243 23.5256 22.8493 23.7507C23.0744 23.9757 23.2008 24.281 23.2008 24.5992C23.2008 24.9175 23.0744 25.2227 22.8493 25.4477C22.6243 25.6728 22.319 25.7992 22.0008 25.7992H16.4008C16.0825 25.7992 15.7773 25.6728 15.5523 25.4477C15.3272 25.2227 15.2008 24.9175 15.2008 24.5992V20.5992C15.2008 20.281 15.0744 19.9757 14.8493 19.7507C14.6243 19.5256 14.319 19.3992 14.0008 19.3992H10.0008C9.68252 19.3992 9.3773 19.5256 9.15225 19.7507C8.92721 19.9757 8.80078 20.281 8.80078 20.5992V24.5992C8.80078 24.9175 8.67435 25.2227 8.44931 25.4477C8.22427 25.6728 7.91904 25.7992 7.60078 25.7992H2.00078C1.68252 25.7992 1.3773 25.6728 1.15225 25.4477C0.927209 25.2227 0.800781 24.9175 0.800781 24.5992C0.800781 24.281 0.927209 23.9757 1.15225 23.7507C1.3773 23.5256 1.68252 23.3992 2.00078 23.3992H2.40078ZM7.20078 5.79922C7.20078 5.58705 7.28507 5.38356 7.4351 5.23353C7.58512 5.0835 7.78861 4.99922 8.00078 4.99922H9.60078C9.81295 4.99922 10.0164 5.0835 10.1665 5.23353C10.3165 5.38356 10.4008 5.58705 10.4008 5.79922V7.39922C10.4008 7.61139 10.3165 7.81488 10.1665 7.9649C10.0164 8.11493 9.81295 8.19922 9.60078 8.19922H8.00078C7.78861 8.19922 7.58512 8.11493 7.4351 7.9649C7.28507 7.81488 7.20078 7.61139 7.20078 7.39922V5.79922ZM8.00078 11.3992C7.78861 11.3992 7.58512 11.4835 7.4351 11.6335C7.28507 11.7836 7.20078 11.987 7.20078 12.1992V13.7992C7.20078 14.0114 7.28507 14.2149 7.4351 14.3649C7.58512 14.5149 7.78861 14.5992 8.00078 14.5992H9.60078C9.81295 14.5992 10.0164 14.5149 10.1665 14.3649C10.3165 14.2149 10.4008 14.0114 10.4008 13.7992V12.1992C10.4008 11.987 10.3165 11.7836 10.1665 11.6335C10.0164 11.4835 9.81295 11.3992 9.60078 11.3992H8.00078ZM13.6008 5.79922C13.6008 5.58705 13.6851 5.38356 13.8351 5.23353C13.9851 5.0835 14.1886 4.99922 14.4008 4.99922H16.0008C16.213 4.99922 16.4164 5.0835 16.5665 5.23353C16.7165 5.38356 16.8008 5.58705 16.8008 5.79922V7.39922C16.8008 7.61139 16.7165 7.81488 16.5665 7.9649C16.4164 8.11493 16.213 8.19922 16.0008 8.19922H14.4008C14.1886 8.19922 13.9851 8.11493 13.8351 7.9649C13.6851 7.81488 13.6008 7.61139 13.6008 7.39922V5.79922ZM14.4008 11.3992C14.1886 11.3992 13.9851 11.4835 13.8351 11.6335C13.6851 11.7836 13.6008 11.987 13.6008 12.1992V13.7992C13.6008 14.0114 13.6851 14.2149 13.8351 14.3649C13.9851 14.5149 14.1886 14.5992 14.4008 14.5992H16.0008C16.213 14.5992 16.4164 14.5149 16.5665 14.3649C16.7165 14.2149 16.8008 14.0114 16.8008 13.7992V12.1992C16.8008 11.987 16.7165 11.7836 16.5665 11.6335C16.4164 11.4835 16.213 11.3992 16.0008 11.3992H14.4008Z" fill="#0C2191"/>
</svg>
