<svg width="64" height="64" viewBox="0 0 64 64" fill="none" xmlns="http://www.w3.org/2000/svg">
<rect width="64" height="64" rx="32" fill="#FFF5EE"/>
<path d="M20 45C17.7909 45 16 43.2091 16 41V23C16 20.7909 17.7909 19 20 19H44C46.2091 19 48 20.7909 48 23V41C48 43.2091 46.2091 45 44 45H20ZM43 21H21C19.8954 21 19 21.8954 19 23V41C19 42.1046 19.8954 43 21 43L22.0002 43.0003C22.0001 42.9919 22 42.9834 22 42.975C22 42.653 22.0831 42.3356 22.2423 42.0492L22.4199 41.7388L22.6447 41.3698L22.8565 41.0439L23.0381 40.7795L23.3233 40.39L23.5902 40.0509L23.7505 39.858L23.9678 39.6087L24.2504 39.3038L24.4948 39.0563L24.783 38.7827L25.028 38.5643L25.1493 38.4609L25.4888 38.1866L25.7413 37.9967L26.0356 37.7896L26.2118 37.6724L26.5867 37.4399L26.912 37.2554L27.1941 37.1078L27.5101 36.9554C28.829 36.3473 30.3252 36 31.9998 36C36.596 36 39.8485 38.6164 41.7572 42.0493C41.9267 42.354 42.0044 42.6801 41.9998 43.0004L43 43C44.1046 43 45 42.1046 45 41V23C45 21.8954 44.1046 21 43 21ZM32 24C34.2091 24 36 25.8655 36 28.1667C36 30.4679 34.8197 34 32 34C29.1803 34 28 30.4679 28 28.1667C28 25.8655 29.7909 24 32 24ZM22.5 23C23.3284 23 24 23.6716 24 24.5C24 25.3284 23.3284 26 22.5 26C21.6716 26 21 25.3284 21 24.5C21 23.6716 21.6716 23 22.5 23Z" fill="#FF7A1A"/>
</svg>
