<svg width="36" height="29" viewBox="0 0 36 29" fill="none" xmlns="http://www.w3.org/2000/svg">
<path d="M10.5068 0.210938C4.64416 4.34924 0.505859 11.1315 0.505859 18.6034C0.505859 24.6959 4.18435 28.2594 8.4376 28.2594C12.4609 28.2594 15.4497 25.0407 15.4497 21.2473C15.4497 17.4539 12.8058 14.695 9.35722 14.695C8.66751 14.695 7.74789 14.8099 7.51798 14.9249C8.09274 11.0165 11.7712 6.41839 15.4497 4.11933L10.5068 0.210938ZM30.2786 0.210938C24.531 4.34924 20.3927 11.1315 20.3927 18.6034C20.3927 24.6959 24.0712 28.2594 28.3244 28.2594C32.2328 28.2594 35.3366 25.0407 35.3366 21.2473C35.3366 17.4539 32.5777 14.695 29.1291 14.695C28.4394 14.695 27.6347 14.8099 27.4048 14.9249C27.9796 11.0165 31.5431 6.41839 35.2216 4.11933L30.2786 0.210938Z" fill="#1179EF"/>
</svg>
